<svg xmlns="http://www.w3.org/2000/svg" xmlns:xlink="http://www.w3.org/1999/xlink" width="500" zoomAndPan="magnify" viewBox="0 0 375 374.999991" height="500" preserveAspectRatio="xMidYMid meet" version="1.0"><defs><clipPath id="98f7bd3aea"><path d="M 0 3.75 L 375 3.75 L 375 375 L 0 375 Z M 0 3.75 " clip-rule="nonzero"/></clipPath></defs><g clip-path="url(#98f7bd3aea)"><path fill="#005073" d="M 125.0625 283.105469 C 128.738281 294.132812 139.761719 305.160156 147.113281 312.511719 C 158.136719 319.863281 172.835938 323.539062 187.539062 323.539062 C 202.238281 323.539062 216.9375 319.863281 227.964844 312.511719 C 238.988281 305.160156 246.339844 294.132812 253.6875 283.105469 C 238.988281 283.105469 224.289062 275.753906 213.261719 268.402344 C 202.238281 261.050781 194.886719 250.023438 187.539062 238.996094 C 183.863281 250.023438 176.511719 261.050781 165.488281 268.402344 C 154.460938 275.753906 139.761719 283.105469 125.0625 283.105469 Z M 0.109375 216.941406 C 3.785156 231.644531 7.460938 250.023438 14.808594 264.726562 C 22.160156 261.050781 25.835938 257.375 33.183594 250.023438 C 36.859375 246.347656 40.535156 238.996094 44.210938 231.644531 C 33.183594 231.644531 25.835938 227.96875 18.484375 224.292969 C 11.132812 224.292969 3.785156 220.617188 0.109375 216.941406 Z M 18.484375 272.078125 C 29.511719 290.457031 44.210938 308.835938 58.910156 323.539062 C 69.933594 323.539062 84.636719 316.1875 91.984375 308.835938 C 99.335938 301.484375 106.6875 294.132812 114.035156 283.105469 C 99.335938 283.105469 84.636719 275.753906 73.609375 268.402344 C 62.585938 261.050781 55.234375 250.023438 47.886719 238.996094 C 44.210938 246.347656 44.210938 250.023438 36.859375 257.375 C 33.183594 261.050781 25.835938 268.402344 18.484375 272.078125 Z M 66.261719 330.890625 C 88.3125 349.269531 114.035156 363.972656 143.4375 371.324219 C 154.460938 367.648438 161.8125 360.296875 169.164062 352.945312 C 176.511719 349.269531 180.1875 341.917969 183.863281 334.566406 C 169.164062 330.890625 154.460938 327.214844 143.4375 319.863281 C 132.410156 312.511719 125.0625 301.484375 117.710938 290.457031 C 114.035156 301.484375 106.6875 308.835938 99.335938 316.1875 C 88.3125 323.539062 77.285156 327.214844 66.261719 330.890625 Z M 158.136719 371.324219 C 169.164062 375 180.1875 375 187.539062 375 C 198.5625 375 209.585938 375 220.613281 371.324219 C 213.261719 367.648438 205.914062 363.972656 202.238281 360.296875 C 198.5625 352.945312 191.210938 349.269531 187.539062 341.917969 C 183.863281 349.269531 180.1875 352.945312 176.511719 360.296875 C 169.164062 363.972656 165.488281 367.648438 158.136719 371.324219 Z M 231.636719 371.324219 C 261.039062 363.972656 290.4375 349.269531 312.488281 330.890625 C 297.789062 327.214844 290.4375 323.539062 279.414062 316.1875 C 272.0625 308.835938 264.714844 301.484375 257.363281 290.457031 C 253.6875 301.484375 246.339844 312.511719 235.3125 319.863281 C 224.289062 327.214844 209.585938 330.890625 194.886719 334.566406 C 198.5625 341.917969 202.238281 349.269531 209.585938 352.945312 C 216.9375 360.296875 224.289062 367.648438 231.636719 371.324219 Z M 319.839844 323.539062 C 334.539062 308.835938 349.238281 290.457031 360.265625 272.078125 C 352.914062 268.402344 345.566406 261.050781 338.214844 257.375 C 334.539062 250.023438 330.863281 246.347656 327.191406 238.996094 C 323.515625 250.023438 316.164062 261.050781 305.140625 268.402344 C 294.113281 275.753906 279.414062 283.105469 264.714844 283.105469 C 268.390625 294.132812 275.738281 301.484375 286.765625 308.835938 C 294.113281 316.1875 305.140625 323.539062 319.839844 323.539062 Z M 363.941406 264.726562 C 371.289062 250.023438 374.964844 231.644531 378.640625 216.941406 C 371.289062 220.617188 367.617188 224.292969 360.265625 224.292969 C 352.914062 227.96875 345.566406 231.644531 334.539062 231.644531 C 338.214844 238.996094 341.890625 246.347656 345.566406 250.023438 C 349.238281 257.375 356.589844 261.050781 363.941406 264.726562 Z M 55.234375 180.1875 C 58.910156 180.1875 58.910156 180.1875 58.910156 183.863281 C 58.910156 187.539062 58.910156 187.539062 55.234375 187.539062 L 11.132812 187.539062 C 11.132812 187.539062 7.460938 187.539062 7.460938 183.863281 C 7.460938 180.1875 11.132812 180.1875 11.132812 180.1875 Z M 77.285156 114.023438 C 77.285156 114.023438 77.285156 117.699219 77.285156 121.375 C 77.285156 121.375 73.609375 121.375 69.933594 121.375 L 33.183594 99.320312 C 33.183594 99.320312 33.183594 95.644531 33.183594 95.644531 C 33.183594 91.96875 36.859375 91.96875 36.859375 91.96875 Z M 125.0625 66.238281 C 128.738281 69.914062 125.0625 69.914062 125.0625 73.589844 C 121.386719 73.589844 121.386719 73.589844 117.710938 69.914062 L 95.660156 33.15625 C 95.660156 33.15625 95.660156 29.480469 99.335938 29.480469 C 99.335938 25.804688 103.011719 25.804688 103.011719 29.480469 Z M 323.515625 187.539062 C 319.839844 187.539062 316.164062 187.539062 316.164062 183.863281 C 316.164062 180.1875 319.839844 180.1875 323.515625 180.1875 L 363.941406 180.1875 C 367.617188 180.1875 367.617188 180.1875 367.617188 183.863281 C 367.617188 187.539062 367.617188 187.539062 363.941406 187.539062 Z M 305.140625 121.375 C 305.140625 121.375 301.464844 121.375 301.464844 121.375 C 297.789062 117.699219 301.464844 114.023438 301.464844 114.023438 L 338.214844 91.96875 C 341.890625 91.96875 345.566406 91.96875 345.566406 95.644531 C 345.566406 95.644531 345.566406 99.320312 341.890625 99.320312 Z M 257.363281 69.914062 C 257.363281 73.589844 253.6875 73.589844 253.6875 73.589844 C 250.011719 69.914062 250.011719 69.914062 250.011719 66.238281 L 272.0625 29.480469 C 275.738281 25.804688 275.738281 25.804688 279.414062 29.480469 C 279.414062 29.480469 283.089844 33.15625 279.414062 33.15625 Z M 194.886719 51.535156 C 194.886719 51.535156 191.210938 55.210938 187.539062 55.210938 C 187.539062 55.210938 183.863281 51.535156 183.863281 51.535156 L 183.863281 7.425781 C 183.863281 7.425781 187.539062 3.75 187.539062 3.75 C 191.210938 3.75 194.886719 7.425781 194.886719 7.425781 Z M 308.8125 183.863281 C 308.8125 187.539062 305.140625 187.539062 301.464844 187.539062 C 301.464844 187.539062 297.789062 187.539062 297.789062 183.863281 C 297.789062 154.457031 286.765625 125.050781 264.714844 106.671875 C 246.339844 88.292969 220.613281 73.589844 187.539062 73.589844 C 158.136719 73.589844 132.410156 88.292969 110.359375 106.671875 C 91.984375 125.050781 77.285156 154.457031 77.285156 183.863281 C 77.285156 187.539062 77.285156 187.539062 73.609375 187.539062 C 73.609375 187.539062 69.933594 187.539062 69.933594 183.863281 C 69.933594 150.78125 84.636719 121.375 106.6875 99.320312 C 125.0625 77.265625 154.460938 66.238281 187.539062 66.238281 C 220.613281 66.238281 250.011719 77.265625 272.0625 99.320312 C 294.113281 121.375 308.8125 150.78125 308.8125 183.863281 Z M 257.363281 275.753906 L 261.039062 275.753906 C 275.738281 275.753906 286.765625 268.402344 297.789062 261.050781 C 308.8125 253.699219 316.164062 242.671875 323.515625 231.644531 C 308.8125 231.644531 294.113281 227.96875 283.089844 216.941406 C 272.0625 209.589844 264.714844 202.238281 257.363281 187.539062 C 253.6875 202.238281 246.339844 209.589844 235.3125 216.941406 C 224.289062 227.96875 209.585938 231.644531 194.886719 231.644531 C 198.5625 242.671875 209.585938 253.699219 216.9375 261.050781 C 227.964844 268.402344 242.664062 275.753906 257.363281 275.753906 Z M 117.710938 275.753906 C 117.710938 275.753906 117.710938 275.753906 121.386719 275.753906 C 136.085938 275.753906 147.113281 268.402344 158.136719 261.050781 C 169.164062 253.699219 176.511719 242.671875 183.863281 231.644531 C 169.164062 231.644531 154.460938 227.96875 143.4375 216.941406 C 132.410156 209.589844 125.0625 202.238281 117.710938 187.539062 C 114.035156 202.238281 103.011719 209.589844 95.660156 216.941406 C 84.636719 227.96875 69.933594 231.644531 55.234375 231.644531 C 58.910156 242.671875 66.261719 253.699219 77.285156 261.050781 C 88.3125 268.402344 103.011719 275.753906 117.710938 275.753906 Z M 117.710938 275.753906 " fill-opacity="1" fill-rule="nonzero"/></g></svg>