<svg xmlns="http://www.w3.org/2000/svg" xmlns:xlink="http://www.w3.org/1999/xlink" width="500" zoomAndPan="magnify" viewBox="0 0 375 374.999991" height="500" preserveAspectRatio="xMidYMid meet" version="1.0"><defs><g/><clipPath id="b4a9d7b14c"><path d="M 34.078125 0 L 340.828125 0 L 340.828125 300.75 L 34.078125 300.75 Z M 34.078125 0 " clip-rule="nonzero"/></clipPath></defs><g clip-path="url(#b4a9d7b14c)"><path fill="#ffffff" d="M 135.367188 226.308594 C 138.34375 235.238281 147.269531 244.171875 153.222656 250.128906 C 162.152344 256.085938 174.058594 259.0625 185.964844 259.0625 C 197.867188 259.0625 209.773438 256.085938 218.703125 250.128906 C 227.632812 244.171875 233.585938 235.238281 239.539062 226.308594 C 227.632812 226.308594 215.726562 220.351562 206.796875 214.394531 C 197.867188 208.441406 191.917969 199.507812 185.964844 190.574219 C 182.988281 199.507812 177.035156 208.441406 168.105469 214.394531 C 159.175781 220.351562 147.269531 226.308594 135.367188 226.308594 Z M 34.171875 172.707031 C 37.144531 184.617188 40.121094 199.507812 46.074219 211.417969 C 52.027344 208.441406 55.003906 205.460938 60.957031 199.507812 C 63.933594 196.53125 66.910156 190.574219 69.886719 184.617188 C 60.957031 184.617188 55.003906 181.640625 49.050781 178.664062 C 43.097656 178.664062 37.144531 175.6875 34.171875 172.707031 Z M 49.050781 217.375 C 57.980469 232.261719 69.886719 247.152344 81.792969 259.0625 C 90.71875 259.0625 102.625 253.105469 108.578125 247.152344 C 114.53125 241.195312 120.484375 235.238281 126.4375 226.308594 C 114.53125 226.308594 102.625 220.351562 93.695312 214.394531 C 84.769531 208.441406 78.816406 199.507812 72.863281 190.574219 C 69.886719 196.53125 69.886719 199.507812 63.933594 205.460938 C 60.957031 208.441406 55.003906 214.394531 49.050781 217.375 Z M 87.746094 265.015625 C 105.601562 279.90625 126.4375 291.816406 150.246094 297.773438 C 159.175781 294.792969 165.128906 288.839844 171.082031 282.882812 C 177.035156 279.90625 180.011719 273.949219 182.988281 267.996094 C 171.082031 265.015625 159.175781 262.039062 150.246094 256.085938 C 141.320312 250.128906 135.367188 241.195312 129.414062 232.261719 C 126.4375 241.195312 120.484375 247.152344 114.53125 253.105469 C 105.601562 259.0625 96.671875 262.039062 87.746094 265.015625 Z M 162.152344 297.773438 C 171.082031 300.75 180.011719 300.75 185.964844 300.75 C 194.894531 300.75 203.820312 300.75 212.75 297.773438 C 206.796875 294.792969 200.84375 291.816406 197.867188 288.839844 C 194.894531 282.882812 188.941406 279.90625 185.964844 273.949219 C 182.988281 279.90625 180.011719 282.882812 177.035156 288.839844 C 171.082031 291.816406 168.105469 294.792969 162.152344 297.773438 Z M 221.679688 297.773438 C 245.492188 291.816406 269.300781 279.90625 287.160156 265.015625 C 275.253906 262.039062 269.300781 259.0625 260.371094 253.105469 C 254.417969 247.152344 248.46875 241.195312 242.515625 232.261719 C 239.539062 241.195312 233.585938 250.128906 224.65625 256.085938 C 215.726562 262.039062 203.820312 265.015625 191.917969 267.996094 C 194.894531 273.949219 197.867188 279.90625 203.820312 282.882812 C 209.773438 288.839844 215.726562 294.792969 221.679688 297.773438 Z M 293.113281 259.0625 C 305.019531 247.152344 316.921875 232.261719 325.851562 217.375 C 319.898438 214.394531 313.945312 208.441406 307.992188 205.460938 C 305.019531 199.507812 302.042969 196.53125 299.066406 190.574219 C 296.089844 199.507812 290.136719 208.441406 281.207031 214.394531 C 272.277344 220.351562 260.371094 226.308594 248.46875 226.308594 C 251.445312 235.238281 257.394531 241.195312 266.324219 247.152344 C 272.277344 253.105469 281.207031 259.0625 293.113281 259.0625 Z M 328.828125 211.417969 C 334.78125 199.507812 337.757812 184.617188 340.734375 172.707031 C 334.78125 175.6875 331.804688 178.664062 325.851562 178.664062 C 319.898438 181.640625 313.945312 184.617188 305.019531 184.617188 C 307.992188 190.574219 310.96875 196.53125 313.945312 199.507812 C 316.921875 205.460938 322.875 208.441406 328.828125 211.417969 Z M 78.816406 142.929688 C 81.792969 142.929688 81.792969 142.929688 81.792969 145.910156 C 81.792969 148.886719 81.792969 148.886719 78.816406 148.886719 L 43.097656 148.886719 C 43.097656 148.886719 40.121094 148.886719 40.121094 145.910156 C 40.121094 142.929688 43.097656 142.929688 43.097656 142.929688 Z M 96.671875 89.332031 C 96.671875 89.332031 96.671875 92.308594 96.671875 95.289062 C 96.671875 95.289062 93.695312 95.289062 90.71875 95.289062 L 60.957031 77.421875 C 60.957031 77.421875 60.957031 74.441406 60.957031 74.441406 C 60.957031 71.464844 63.933594 71.464844 63.933594 71.464844 Z M 135.367188 50.621094 C 138.34375 53.597656 135.367188 53.597656 135.367188 56.578125 C 132.390625 56.578125 132.390625 56.578125 129.414062 53.597656 L 111.554688 23.820312 C 111.554688 23.820312 111.554688 20.84375 114.53125 20.84375 C 114.53125 17.867188 117.507812 17.867188 117.507812 20.84375 Z M 296.089844 148.886719 C 293.113281 148.886719 290.136719 148.886719 290.136719 145.910156 C 290.136719 142.929688 293.113281 142.929688 296.089844 142.929688 L 328.828125 142.929688 C 331.804688 142.929688 331.804688 142.929688 331.804688 145.910156 C 331.804688 148.886719 331.804688 148.886719 328.828125 148.886719 Z M 281.207031 95.289062 C 281.207031 95.289062 278.230469 95.289062 278.230469 95.289062 C 275.253906 92.308594 278.230469 89.332031 278.230469 89.332031 L 307.992188 71.464844 C 310.96875 71.464844 313.945312 71.464844 313.945312 74.441406 C 313.945312 74.441406 313.945312 77.421875 310.96875 77.421875 Z M 242.515625 53.597656 C 242.515625 56.578125 239.539062 56.578125 239.539062 56.578125 C 236.5625 53.597656 236.5625 53.597656 236.5625 50.621094 L 254.417969 20.84375 C 257.394531 17.867188 257.394531 17.867188 260.371094 20.84375 C 260.371094 20.84375 263.347656 23.820312 260.371094 23.820312 Z M 191.917969 38.710938 C 191.917969 38.710938 188.941406 41.6875 185.964844 41.6875 C 185.964844 41.6875 182.988281 38.710938 182.988281 38.710938 L 182.988281 2.976562 C 182.988281 2.976562 185.964844 0 185.964844 0 C 188.941406 0 191.917969 2.976562 191.917969 2.976562 Z M 284.183594 145.910156 C 284.183594 148.886719 281.207031 148.886719 278.230469 148.886719 C 278.230469 148.886719 275.253906 148.886719 275.253906 145.910156 C 275.253906 122.085938 266.324219 98.265625 248.46875 83.375 C 233.585938 68.488281 212.75 56.578125 185.964844 56.578125 C 162.152344 56.578125 141.320312 68.488281 123.460938 83.375 C 108.578125 98.265625 96.671875 122.085938 96.671875 145.910156 C 96.671875 148.886719 96.671875 148.886719 93.695312 148.886719 C 93.695312 148.886719 90.71875 148.886719 90.71875 145.910156 C 90.71875 119.109375 102.625 95.289062 120.484375 77.421875 C 135.367188 59.554688 159.175781 50.621094 185.964844 50.621094 C 212.75 50.621094 236.5625 59.554688 254.417969 77.421875 C 272.277344 95.289062 284.183594 119.109375 284.183594 145.910156 Z M 242.515625 220.351562 L 245.492188 220.351562 C 257.394531 220.351562 266.324219 214.394531 275.253906 208.441406 C 284.183594 202.484375 290.136719 193.550781 296.089844 184.617188 C 284.183594 184.617188 272.277344 181.640625 263.347656 172.707031 C 254.417969 166.753906 248.46875 160.796875 242.515625 148.886719 C 239.539062 160.796875 233.585938 166.753906 224.65625 172.707031 C 215.726562 181.640625 203.820312 184.617188 191.917969 184.617188 C 194.894531 193.550781 203.820312 202.484375 209.773438 208.441406 C 218.703125 214.394531 230.609375 220.351562 242.515625 220.351562 Z M 129.414062 220.351562 C 129.414062 220.351562 129.414062 220.351562 132.390625 220.351562 C 144.292969 220.351562 153.222656 214.394531 162.152344 208.441406 C 171.082031 202.484375 177.035156 193.550781 182.988281 184.617188 C 171.082031 184.617188 159.175781 181.640625 150.246094 172.707031 C 141.320312 166.753906 135.367188 160.796875 129.414062 148.886719 C 126.4375 160.796875 117.507812 166.753906 111.554688 172.707031 C 102.625 181.640625 90.71875 184.617188 78.816406 184.617188 C 81.792969 193.550781 87.746094 202.484375 96.671875 208.441406 C 105.601562 214.394531 117.507812 220.351562 129.414062 220.351562 Z M 129.414062 220.351562 " fill-opacity="1" fill-rule="nonzero"/></g><g fill="#ffffff" fill-opacity="1"><g transform="translate(97.453124, 338.949998)"><g><path d="M 2.046875 0 L 2.046875 -15.703125 L 8.75 -15.703125 C 9.707031 -15.703125 10.519531 -15.550781 11.1875 -15.25 C 11.863281 -14.945312 12.375 -14.515625 12.71875 -13.953125 C 13.0625 -13.390625 13.234375 -12.722656 13.234375 -11.953125 C 13.234375 -11.265625 13.0625 -10.65625 12.71875 -10.125 C 12.382812 -9.59375 11.90625 -9.164062 11.28125 -8.84375 L 11.28125 -8.609375 C 12.269531 -8.359375 13.03125 -7.890625 13.5625 -7.203125 C 14.101562 -6.523438 14.375 -5.691406 14.375 -4.703125 C 14.375 -3.203125 13.921875 -2.039062 13.015625 -1.21875 C 12.109375 -0.40625 10.765625 0 8.984375 0 Z M 8.09375 -9.4375 C 9.539062 -9.4375 10.265625 -10.085938 10.265625 -11.390625 C 10.265625 -12.054688 10.085938 -12.550781 9.734375 -12.875 C 9.378906 -13.207031 8.832031 -13.375 8.09375 -13.375 L 5.140625 -13.375 L 5.140625 -9.4375 Z M 8.671875 -2.453125 C 10.378906 -2.453125 11.234375 -3.234375 11.234375 -4.796875 C 11.234375 -6.359375 10.378906 -7.140625 8.671875 -7.140625 L 5.140625 -7.140625 L 5.140625 -2.453125 Z M 8.671875 -2.453125 "/></g></g></g><g fill="#ffffff" fill-opacity="1"><g transform="translate(112.811723, 338.949998)"><g><path d="M 4.625 0.21875 C 3.863281 0.21875 3.203125 0.0820312 2.640625 -0.1875 C 2.085938 -0.46875 1.660156 -0.878906 1.359375 -1.421875 C 1.054688 -1.960938 0.90625 -2.613281 0.90625 -3.375 C 0.90625 -4.070312 1.054688 -4.660156 1.359375 -5.140625 C 1.660156 -5.617188 2.125 -6.007812 2.75 -6.3125 C 3.382812 -6.613281 4.207031 -6.847656 5.21875 -7.015625 C 5.925781 -7.128906 6.460938 -7.253906 6.828125 -7.390625 C 7.203125 -7.523438 7.453125 -7.675781 7.578125 -7.84375 C 7.710938 -8.019531 7.78125 -8.242188 7.78125 -8.515625 C 7.78125 -8.890625 7.644531 -9.175781 7.375 -9.375 C 7.113281 -9.570312 6.675781 -9.671875 6.0625 -9.671875 C 5.40625 -9.671875 4.773438 -9.523438 4.171875 -9.234375 C 3.578125 -8.941406 3.0625 -8.554688 2.625 -8.078125 L 2.421875 -8.078125 L 1.171875 -9.953125 C 1.773438 -10.617188 2.507812 -11.140625 3.375 -11.515625 C 4.238281 -11.890625 5.179688 -12.078125 6.203125 -12.078125 C 7.773438 -12.078125 8.910156 -11.742188 9.609375 -11.078125 C 10.316406 -10.410156 10.671875 -9.460938 10.671875 -8.234375 L 10.671875 -3.09375 C 10.671875 -2.5625 10.898438 -2.296875 11.359375 -2.296875 C 11.546875 -2.296875 11.722656 -2.328125 11.890625 -2.390625 L 12.046875 -2.359375 L 12.25 -0.28125 C 12.09375 -0.175781 11.863281 -0.0859375 11.5625 -0.015625 C 11.269531 0.0546875 10.953125 0.09375 10.609375 0.09375 C 9.898438 0.09375 9.34375 -0.0390625 8.9375 -0.3125 C 8.539062 -0.59375 8.257812 -1.019531 8.09375 -1.59375 L 7.859375 -1.625 C 7.285156 -0.394531 6.207031 0.21875 4.625 0.21875 Z M 5.5625 -2 C 6.25 -2 6.796875 -2.226562 7.203125 -2.6875 C 7.617188 -3.15625 7.828125 -3.800781 7.828125 -4.625 L 7.828125 -5.828125 L 7.625 -5.859375 C 7.445312 -5.722656 7.210938 -5.601562 6.921875 -5.5 C 6.628906 -5.40625 6.210938 -5.3125 5.671875 -5.21875 C 5.023438 -5.113281 4.5625 -4.929688 4.28125 -4.671875 C 4 -4.410156 3.859375 -4.039062 3.859375 -3.5625 C 3.859375 -3.050781 4.007812 -2.660156 4.3125 -2.390625 C 4.613281 -2.128906 5.03125 -2 5.5625 -2 Z M 5.5625 -2 "/></g></g></g><g fill="#ffffff" fill-opacity="1"><g transform="translate(125.302674, 338.949998)"><g><path d="M 4.921875 0.21875 C 3.847656 0.21875 3.03125 -0.0664062 2.46875 -0.640625 C 1.914062 -1.210938 1.640625 -2.085938 1.640625 -3.265625 L 1.640625 -16.609375 L 4.609375 -16.609375 L 4.609375 -3.390625 C 4.609375 -2.660156 4.910156 -2.296875 5.515625 -2.296875 C 5.679688 -2.296875 5.863281 -2.328125 6.0625 -2.390625 L 6.203125 -2.34375 L 6.484375 -0.046875 C 6.316406 0.0351562 6.097656 0.0976562 5.828125 0.140625 C 5.554688 0.191406 5.253906 0.21875 4.921875 0.21875 Z M 4.921875 0.21875 "/></g></g></g><g fill="#ffffff" fill-opacity="1"><g transform="translate(132.112011, 338.949998)"><g><path d="M 4.625 0.21875 C 3.863281 0.21875 3.203125 0.0820312 2.640625 -0.1875 C 2.085938 -0.46875 1.660156 -0.878906 1.359375 -1.421875 C 1.054688 -1.960938 0.90625 -2.613281 0.90625 -3.375 C 0.90625 -4.070312 1.054688 -4.660156 1.359375 -5.140625 C 1.660156 -5.617188 2.125 -6.007812 2.75 -6.3125 C 3.382812 -6.613281 4.207031 -6.847656 5.21875 -7.015625 C 5.925781 -7.128906 6.460938 -7.253906 6.828125 -7.390625 C 7.203125 -7.523438 7.453125 -7.675781 7.578125 -7.84375 C 7.710938 -8.019531 7.78125 -8.242188 7.78125 -8.515625 C 7.78125 -8.890625 7.644531 -9.175781 7.375 -9.375 C 7.113281 -9.570312 6.675781 -9.671875 6.0625 -9.671875 C 5.40625 -9.671875 4.773438 -9.523438 4.171875 -9.234375 C 3.578125 -8.941406 3.0625 -8.554688 2.625 -8.078125 L 2.421875 -8.078125 L 1.171875 -9.953125 C 1.773438 -10.617188 2.507812 -11.140625 3.375 -11.515625 C 4.238281 -11.890625 5.179688 -12.078125 6.203125 -12.078125 C 7.773438 -12.078125 8.910156 -11.742188 9.609375 -11.078125 C 10.316406 -10.410156 10.671875 -9.460938 10.671875 -8.234375 L 10.671875 -3.09375 C 10.671875 -2.5625 10.898438 -2.296875 11.359375 -2.296875 C 11.546875 -2.296875 11.722656 -2.328125 11.890625 -2.390625 L 12.046875 -2.359375 L 12.25 -0.28125 C 12.09375 -0.175781 11.863281 -0.0859375 11.5625 -0.015625 C 11.269531 0.0546875 10.953125 0.09375 10.609375 0.09375 C 9.898438 0.09375 9.34375 -0.0390625 8.9375 -0.3125 C 8.539062 -0.59375 8.257812 -1.019531 8.09375 -1.59375 L 7.859375 -1.625 C 7.285156 -0.394531 6.207031 0.21875 4.625 0.21875 Z M 5.5625 -2 C 6.25 -2 6.796875 -2.226562 7.203125 -2.6875 C 7.617188 -3.15625 7.828125 -3.800781 7.828125 -4.625 L 7.828125 -5.828125 L 7.625 -5.859375 C 7.445312 -5.722656 7.210938 -5.601562 6.921875 -5.5 C 6.628906 -5.40625 6.210938 -5.3125 5.671875 -5.21875 C 5.023438 -5.113281 4.5625 -4.929688 4.28125 -4.671875 C 4 -4.410156 3.859375 -4.039062 3.859375 -3.5625 C 3.859375 -3.050781 4.007812 -2.660156 4.3125 -2.390625 C 4.613281 -2.128906 5.03125 -2 5.5625 -2 Z M 5.5625 -2 "/></g></g></g><g fill="#ffffff" fill-opacity="1"><g transform="translate(144.602962, 338.949998)"><g><path d="M 1.703125 0 L 1.703125 -11.84375 L 4.5625 -11.84375 L 4.5625 -10.109375 L 4.796875 -10.0625 C 5.523438 -11.40625 6.71875 -12.078125 8.375 -12.078125 C 9.75 -12.078125 10.753906 -11.703125 11.390625 -10.953125 C 12.035156 -10.210938 12.359375 -9.128906 12.359375 -7.703125 L 12.359375 0 L 9.375 0 L 9.375 -7.34375 C 9.375 -8.125 9.21875 -8.6875 8.90625 -9.03125 C 8.59375 -9.382812 8.085938 -9.5625 7.390625 -9.5625 C 6.535156 -9.5625 5.867188 -9.285156 5.390625 -8.734375 C 4.921875 -8.179688 4.6875 -7.316406 4.6875 -6.140625 L 4.6875 0 Z M 1.703125 0 "/></g></g></g><g fill="#ffffff" fill-opacity="1"><g transform="translate(158.479403, 338.949998)"><g><path d="M 6.90625 0.21875 C 5.757812 0.21875 4.742188 -0.015625 3.859375 -0.484375 C 2.984375 -0.960938 2.296875 -1.660156 1.796875 -2.578125 C 1.304688 -3.503906 1.0625 -4.617188 1.0625 -5.921875 C 1.0625 -7.222656 1.304688 -8.332031 1.796875 -9.25 C 2.296875 -10.175781 2.984375 -10.878906 3.859375 -11.359375 C 4.734375 -11.835938 5.734375 -12.078125 6.859375 -12.078125 C 9.359375 -12.078125 10.957031 -11.171875 11.65625 -9.359375 L 9.609375 -7.890625 L 9.390625 -7.890625 C 9.148438 -8.453125 8.832031 -8.867188 8.4375 -9.140625 C 8.050781 -9.410156 7.523438 -9.546875 6.859375 -9.546875 C 5.992188 -9.546875 5.320312 -9.25 4.84375 -8.65625 C 4.363281 -8.0625 4.125 -7.148438 4.125 -5.921875 C 4.125 -4.703125 4.367188 -3.789062 4.859375 -3.1875 C 5.347656 -2.59375 6.03125 -2.296875 6.90625 -2.296875 C 7.550781 -2.296875 8.097656 -2.46875 8.546875 -2.8125 C 8.992188 -3.164062 9.3125 -3.664062 9.5 -4.3125 L 9.734375 -4.34375 L 11.84375 -3.1875 C 11.539062 -2.175781 10.984375 -1.351562 10.171875 -0.71875 C 9.359375 -0.09375 8.269531 0.21875 6.90625 0.21875 Z M 6.90625 0.21875 "/></g></g></g><g fill="#ffffff" fill-opacity="1"><g transform="translate(170.691107, 338.949998)"><g><path d="M 11.703125 -5.25 L 4.09375 -5.25 C 4.175781 -4.21875 4.46875 -3.46875 4.96875 -3 C 5.46875 -2.53125 6.15625 -2.296875 7.03125 -2.296875 C 7.707031 -2.296875 8.253906 -2.421875 8.671875 -2.671875 C 9.097656 -2.929688 9.441406 -3.316406 9.703125 -3.828125 L 9.921875 -3.828125 L 11.90625 -2.5625 C 11.519531 -1.738281 10.9375 -1.066406 10.15625 -0.546875 C 9.375 -0.0351562 8.332031 0.21875 7.03125 0.21875 C 5.800781 0.21875 4.738281 -0.0078125 3.84375 -0.46875 C 2.957031 -0.9375 2.269531 -1.628906 1.78125 -2.546875 C 1.300781 -3.472656 1.0625 -4.597656 1.0625 -5.921875 C 1.0625 -7.265625 1.316406 -8.394531 1.828125 -9.3125 C 2.335938 -10.238281 3.023438 -10.929688 3.890625 -11.390625 C 4.753906 -11.847656 5.726562 -12.078125 6.8125 -12.078125 C 8.488281 -12.078125 9.769531 -11.628906 10.65625 -10.734375 C 11.550781 -9.847656 12 -8.546875 12 -6.828125 C 12 -6.203125 11.976562 -5.71875 11.9375 -5.375 Z M 9.15625 -7.171875 C 9.125 -8.078125 8.910156 -8.734375 8.515625 -9.140625 C 8.128906 -9.554688 7.5625 -9.765625 6.8125 -9.765625 C 5.3125 -9.765625 4.425781 -8.898438 4.15625 -7.171875 Z M 9.15625 -7.171875 "/></g></g></g><g fill="#ffffff" fill-opacity="1"><g transform="translate(183.568707, 338.949998)"><g><path d="M 5.859375 0.21875 C 4.921875 0.21875 4.085938 -0.00390625 3.359375 -0.453125 C 2.640625 -0.910156 2.078125 -1.597656 1.671875 -2.515625 C 1.265625 -3.441406 1.0625 -4.578125 1.0625 -5.921875 C 1.0625 -7.273438 1.269531 -8.410156 1.6875 -9.328125 C 2.113281 -10.242188 2.695312 -10.929688 3.4375 -11.390625 C 4.175781 -11.847656 5.03125 -12.078125 6 -12.078125 C 6.738281 -12.078125 7.378906 -11.945312 7.921875 -11.6875 C 8.460938 -11.4375 8.921875 -11.039062 9.296875 -10.5 L 9.515625 -10.5625 L 9.515625 -16.609375 L 12.5 -16.609375 L 12.5 0 L 9.515625 0 L 9.515625 -1.53125 L 9.296875 -1.578125 C 8.960938 -1.015625 8.507812 -0.570312 7.9375 -0.25 C 7.363281 0.0625 6.671875 0.21875 5.859375 0.21875 Z M 6.828125 -2.296875 C 7.660156 -2.296875 8.320312 -2.59375 8.8125 -3.1875 C 9.300781 -3.789062 9.546875 -4.703125 9.546875 -5.921875 C 9.546875 -7.140625 9.300781 -8.046875 8.8125 -8.640625 C 8.320312 -9.242188 7.660156 -9.546875 6.828125 -9.546875 C 5.953125 -9.546875 5.28125 -9.253906 4.8125 -8.671875 C 4.351562 -8.085938 4.125 -7.171875 4.125 -5.921875 C 4.125 -4.671875 4.351562 -3.753906 4.8125 -3.171875 C 5.28125 -2.585938 5.953125 -2.296875 6.828125 -2.296875 Z M 6.828125 -2.296875 "/></g></g></g><g fill="#ffffff" fill-opacity="1"><g transform="translate(197.767357, 338.949998)"><g/></g></g><g fill="#ffffff" fill-opacity="1"><g transform="translate(202.954917, 338.949998)"><g><path d="M 4.890625 0 L 2.046875 0 L 2.046875 -15.703125 L 6.109375 -15.703125 L 10.078125 -4.15625 L 10.296875 -4.15625 L 14.25 -15.703125 L 18.21875 -15.703125 L 18.21875 0 L 15.28125 0 L 15.28125 -10.375 L 15 -10.421875 L 11.375 0 L 8.78125 0 L 5.15625 -10.421875 L 4.890625 -10.375 Z M 4.890625 0 "/></g></g></g><g fill="#ffffff" fill-opacity="1"><g transform="translate(223.22183, 338.949998)"><g><path d="M 3.1875 -13.265625 C 2.65625 -13.265625 2.21875 -13.425781 1.875 -13.75 C 1.539062 -14.082031 1.375 -14.503906 1.375 -15.015625 C 1.375 -15.523438 1.539062 -15.941406 1.875 -16.265625 C 2.21875 -16.597656 2.65625 -16.765625 3.1875 -16.765625 C 3.550781 -16.765625 3.867188 -16.6875 4.140625 -16.53125 C 4.421875 -16.382812 4.640625 -16.175781 4.796875 -15.90625 C 4.953125 -15.644531 5.03125 -15.347656 5.03125 -15.015625 C 5.03125 -14.679688 4.953125 -14.378906 4.796875 -14.109375 C 4.640625 -13.847656 4.421875 -13.640625 4.140625 -13.484375 C 3.867188 -13.335938 3.550781 -13.265625 3.1875 -13.265625 Z M 1.703125 0 L 1.703125 -11.84375 L 4.6875 -11.84375 L 4.6875 0 Z M 1.703125 0 "/></g></g></g><g fill="#ffffff" fill-opacity="1"><g transform="translate(229.601556, 338.949998)"><g><path d="M 1.703125 0 L 1.703125 -11.84375 L 4.5625 -11.84375 L 4.5625 -10.109375 L 4.796875 -10.0625 C 5.523438 -11.40625 6.71875 -12.078125 8.375 -12.078125 C 9.75 -12.078125 10.753906 -11.703125 11.390625 -10.953125 C 12.035156 -10.210938 12.359375 -9.128906 12.359375 -7.703125 L 12.359375 0 L 9.375 0 L 9.375 -7.34375 C 9.375 -8.125 9.21875 -8.6875 8.90625 -9.03125 C 8.59375 -9.382812 8.085938 -9.5625 7.390625 -9.5625 C 6.535156 -9.5625 5.867188 -9.285156 5.390625 -8.734375 C 4.921875 -8.179688 4.6875 -7.316406 4.6875 -6.140625 L 4.6875 0 Z M 1.703125 0 "/></g></g></g><g fill="#ffffff" fill-opacity="1"><g transform="translate(243.477997, 338.949998)"><g><path d="M 5.859375 0.21875 C 4.921875 0.21875 4.085938 -0.00390625 3.359375 -0.453125 C 2.640625 -0.910156 2.078125 -1.597656 1.671875 -2.515625 C 1.265625 -3.441406 1.0625 -4.578125 1.0625 -5.921875 C 1.0625 -7.273438 1.269531 -8.410156 1.6875 -9.328125 C 2.113281 -10.242188 2.695312 -10.929688 3.4375 -11.390625 C 4.175781 -11.847656 5.03125 -12.078125 6 -12.078125 C 6.738281 -12.078125 7.378906 -11.945312 7.921875 -11.6875 C 8.460938 -11.4375 8.921875 -11.039062 9.296875 -10.5 L 9.515625 -10.5625 L 9.515625 -16.609375 L 12.5 -16.609375 L 12.5 0 L 9.515625 0 L 9.515625 -1.53125 L 9.296875 -1.578125 C 8.960938 -1.015625 8.507812 -0.570312 7.9375 -0.25 C 7.363281 0.0625 6.671875 0.21875 5.859375 0.21875 Z M 6.828125 -2.296875 C 7.660156 -2.296875 8.320312 -2.59375 8.8125 -3.1875 C 9.300781 -3.789062 9.546875 -4.703125 9.546875 -5.921875 C 9.546875 -7.140625 9.300781 -8.046875 8.8125 -8.640625 C 8.320312 -9.242188 7.660156 -9.546875 6.828125 -9.546875 C 5.953125 -9.546875 5.28125 -9.253906 4.8125 -8.671875 C 4.351562 -8.085938 4.125 -7.171875 4.125 -5.921875 C 4.125 -4.671875 4.351562 -3.753906 4.8125 -3.171875 C 5.28125 -2.585938 5.953125 -2.296875 6.828125 -2.296875 Z M 6.828125 -2.296875 "/></g></g></g><g fill="#ffffff" fill-opacity="1"><g transform="translate(257.676647, 338.949998)"><g/></g></g><g fill="#ffffff" fill-opacity="1"><g transform="translate(262.864207, 338.949998)"><g><path d="M 6.421875 0.21875 C 5.285156 0.21875 4.289062 0.0234375 3.4375 -0.359375 C 2.582031 -0.742188 1.925781 -1.296875 1.46875 -2.015625 C 1.007812 -2.734375 0.78125 -3.570312 0.78125 -4.53125 C 0.78125 -5.5625 1.035156 -6.414062 1.546875 -7.09375 C 2.066406 -7.78125 2.84375 -8.34375 3.875 -8.78125 L 3.90625 -9.015625 C 3.425781 -9.597656 3.082031 -10.132812 2.875 -10.625 C 2.664062 -11.113281 2.5625 -11.648438 2.5625 -12.234375 C 2.5625 -12.960938 2.734375 -13.601562 3.078125 -14.15625 C 3.421875 -14.71875 3.921875 -15.15625 4.578125 -15.46875 C 5.234375 -15.78125 6.015625 -15.9375 6.921875 -15.9375 C 7.773438 -15.9375 8.507812 -15.789062 9.125 -15.5 C 9.738281 -15.21875 10.207031 -14.820312 10.53125 -14.3125 C 10.851562 -13.800781 11.015625 -13.210938 11.015625 -12.546875 C 11.015625 -11.648438 10.742188 -10.875 10.203125 -10.21875 C 9.671875 -9.5625 8.84375 -9.015625 7.71875 -8.578125 L 7.703125 -8.359375 L 10.609375 -4.515625 C 10.773438 -4.890625 10.890625 -5.316406 10.953125 -5.796875 C 11.023438 -6.285156 11.0625 -6.832031 11.0625 -7.4375 L 11.046875 -8 L 13.5625 -8 C 13.5625 -5.789062 13.128906 -4.003906 12.265625 -2.640625 C 12.441406 -2.492188 12.597656 -2.390625 12.734375 -2.328125 C 12.867188 -2.273438 13.015625 -2.25 13.171875 -2.25 C 13.316406 -2.25 13.4375 -2.253906 13.53125 -2.265625 C 13.625 -2.285156 13.726562 -2.316406 13.84375 -2.359375 L 14.015625 -2.3125 L 14.390625 -0.15625 C 14.253906 -0.0625 14.054688 0.0078125 13.796875 0.0625 C 13.546875 0.113281 13.269531 0.140625 12.96875 0.140625 C 12.445312 0.140625 11.984375 0.0546875 11.578125 -0.109375 C 11.179688 -0.285156 10.804688 -0.550781 10.453125 -0.90625 L 10.234375 -0.90625 C 9.335938 -0.15625 8.066406 0.21875 6.421875 0.21875 Z M 6.40625 -10.0625 C 7.070312 -10.394531 7.554688 -10.726562 7.859375 -11.0625 C 8.160156 -11.40625 8.3125 -11.832031 8.3125 -12.34375 C 8.3125 -12.789062 8.179688 -13.132812 7.921875 -13.375 C 7.671875 -13.613281 7.328125 -13.734375 6.890625 -13.734375 C 6.441406 -13.734375 6.082031 -13.601562 5.8125 -13.34375 C 5.550781 -13.082031 5.421875 -12.726562 5.421875 -12.28125 C 5.421875 -11.9375 5.488281 -11.609375 5.625 -11.296875 C 5.769531 -10.992188 6.03125 -10.582031 6.40625 -10.0625 Z M 6.796875 -2.328125 C 7.484375 -2.328125 8.070312 -2.460938 8.5625 -2.734375 L 5.078125 -7.171875 C 4.660156 -6.898438 4.351562 -6.578125 4.15625 -6.203125 C 3.957031 -5.835938 3.859375 -5.40625 3.859375 -4.90625 C 3.859375 -4.394531 3.976562 -3.941406 4.21875 -3.546875 C 4.457031 -3.160156 4.796875 -2.859375 5.234375 -2.640625 C 5.679688 -2.429688 6.203125 -2.328125 6.796875 -2.328125 Z M 6.796875 -2.328125 "/></g></g></g><g fill="#ffffff" fill-opacity="1"><g transform="translate(110.085935, 369.699996)"><g><path d="M 12.1875 -9.796875 L 12.1875 -15.703125 L 15.28125 -15.703125 L 15.28125 0 L 12.1875 0 L 12.1875 -7.15625 L 5.140625 -7.15625 L 5.140625 0 L 2.046875 0 L 2.046875 -15.703125 L 5.140625 -15.703125 L 5.140625 -9.796875 Z M 12.1875 -9.796875 "/></g></g></g><g fill="#ffffff" fill-opacity="1"><g transform="translate(127.410012, 369.699996)"><g><path d="M 11.703125 -5.25 L 4.09375 -5.25 C 4.175781 -4.21875 4.46875 -3.46875 4.96875 -3 C 5.46875 -2.53125 6.15625 -2.296875 7.03125 -2.296875 C 7.707031 -2.296875 8.253906 -2.421875 8.671875 -2.671875 C 9.097656 -2.929688 9.441406 -3.316406 9.703125 -3.828125 L 9.921875 -3.828125 L 11.90625 -2.5625 C 11.519531 -1.738281 10.9375 -1.066406 10.15625 -0.546875 C 9.375 -0.0351562 8.332031 0.21875 7.03125 0.21875 C 5.800781 0.21875 4.738281 -0.0078125 3.84375 -0.46875 C 2.957031 -0.9375 2.269531 -1.628906 1.78125 -2.546875 C 1.300781 -3.472656 1.0625 -4.597656 1.0625 -5.921875 C 1.0625 -7.265625 1.316406 -8.394531 1.828125 -9.3125 C 2.335938 -10.238281 3.023438 -10.929688 3.890625 -11.390625 C 4.753906 -11.847656 5.726562 -12.078125 6.8125 -12.078125 C 8.488281 -12.078125 9.769531 -11.628906 10.65625 -10.734375 C 11.550781 -9.847656 12 -8.546875 12 -6.828125 C 12 -6.203125 11.976562 -5.71875 11.9375 -5.375 Z M 9.15625 -7.171875 C 9.125 -8.078125 8.910156 -8.734375 8.515625 -9.140625 C 8.128906 -9.554688 7.5625 -9.765625 6.8125 -9.765625 C 5.3125 -9.765625 4.425781 -8.898438 4.15625 -7.171875 Z M 9.15625 -7.171875 "/></g></g></g><g fill="#ffffff" fill-opacity="1"><g transform="translate(140.287612, 369.699996)"><g><path d="M 4.625 0.21875 C 3.863281 0.21875 3.203125 0.0820312 2.640625 -0.1875 C 2.085938 -0.46875 1.660156 -0.878906 1.359375 -1.421875 C 1.054688 -1.960938 0.90625 -2.613281 0.90625 -3.375 C 0.90625 -4.070312 1.054688 -4.660156 1.359375 -5.140625 C 1.660156 -5.617188 2.125 -6.007812 2.75 -6.3125 C 3.382812 -6.613281 4.207031 -6.847656 5.21875 -7.015625 C 5.925781 -7.128906 6.460938 -7.253906 6.828125 -7.390625 C 7.203125 -7.523438 7.453125 -7.675781 7.578125 -7.84375 C 7.710938 -8.019531 7.78125 -8.242188 7.78125 -8.515625 C 7.78125 -8.890625 7.644531 -9.175781 7.375 -9.375 C 7.113281 -9.570312 6.675781 -9.671875 6.0625 -9.671875 C 5.40625 -9.671875 4.773438 -9.523438 4.171875 -9.234375 C 3.578125 -8.941406 3.0625 -8.554688 2.625 -8.078125 L 2.421875 -8.078125 L 1.171875 -9.953125 C 1.773438 -10.617188 2.507812 -11.140625 3.375 -11.515625 C 4.238281 -11.890625 5.179688 -12.078125 6.203125 -12.078125 C 7.773438 -12.078125 8.910156 -11.742188 9.609375 -11.078125 C 10.316406 -10.410156 10.671875 -9.460938 10.671875 -8.234375 L 10.671875 -3.09375 C 10.671875 -2.5625 10.898438 -2.296875 11.359375 -2.296875 C 11.546875 -2.296875 11.722656 -2.328125 11.890625 -2.390625 L 12.046875 -2.359375 L 12.25 -0.28125 C 12.09375 -0.175781 11.863281 -0.0859375 11.5625 -0.015625 C 11.269531 0.0546875 10.953125 0.09375 10.609375 0.09375 C 9.898438 0.09375 9.34375 -0.0390625 8.9375 -0.3125 C 8.539062 -0.59375 8.257812 -1.019531 8.09375 -1.59375 L 7.859375 -1.625 C 7.285156 -0.394531 6.207031 0.21875 4.625 0.21875 Z M 5.5625 -2 C 6.25 -2 6.796875 -2.226562 7.203125 -2.6875 C 7.617188 -3.15625 7.828125 -3.800781 7.828125 -4.625 L 7.828125 -5.828125 L 7.625 -5.859375 C 7.445312 -5.722656 7.210938 -5.601562 6.921875 -5.5 C 6.628906 -5.40625 6.210938 -5.3125 5.671875 -5.21875 C 5.023438 -5.113281 4.5625 -4.929688 4.28125 -4.671875 C 4 -4.410156 3.859375 -4.039062 3.859375 -3.5625 C 3.859375 -3.050781 4.007812 -2.660156 4.3125 -2.390625 C 4.613281 -2.128906 5.03125 -2 5.5625 -2 Z M 5.5625 -2 "/></g></g></g><g fill="#ffffff" fill-opacity="1"><g transform="translate(152.778563, 369.699996)"><g><path d="M 1.703125 0 L 1.703125 -11.84375 L 4.59375 -11.84375 L 4.59375 -10.09375 L 4.828125 -10.046875 C 5.109375 -10.703125 5.484375 -11.179688 5.953125 -11.484375 C 6.421875 -11.796875 6.988281 -11.953125 7.65625 -11.953125 C 8.320312 -11.953125 8.832031 -11.835938 9.1875 -11.609375 L 8.6875 -9.046875 L 8.453125 -9 C 8.265625 -9.082031 8.078125 -9.140625 7.890625 -9.171875 C 7.710938 -9.210938 7.492188 -9.234375 7.234375 -9.234375 C 6.410156 -9.234375 5.78125 -8.941406 5.34375 -8.359375 C 4.90625 -7.773438 4.6875 -6.835938 4.6875 -5.546875 L 4.6875 0 Z M 1.703125 0 "/></g></g></g><g fill="#ffffff" fill-opacity="1"><g transform="translate(162.06891, 369.699996)"><g><path d="M 8.171875 -2.828125 L 8.953125 -0.625 C 8.628906 -0.351562 8.222656 -0.144531 7.734375 0 C 7.242188 0.144531 6.691406 0.21875 6.078125 0.21875 C 4.796875 0.21875 3.820312 -0.128906 3.15625 -0.828125 C 2.488281 -1.523438 2.15625 -2.539062 2.15625 -3.875 L 2.15625 -9.5 L 0.359375 -9.5 L 0.359375 -11.859375 L 2.15625 -11.859375 L 2.15625 -14.171875 L 5.140625 -14.65625 L 5.140625 -11.859375 L 8.5 -11.859375 L 8.5 -9.5 L 5.140625 -9.5 L 5.140625 -4.078125 C 5.140625 -3.492188 5.257812 -3.066406 5.5 -2.796875 C 5.738281 -2.523438 6.09375 -2.390625 6.5625 -2.390625 C 7.09375 -2.390625 7.554688 -2.535156 7.953125 -2.828125 Z M 8.171875 -2.828125 "/></g></g></g><g fill="#ffffff" fill-opacity="1"><g transform="translate(171.273335, 369.699996)"><g/></g></g><g fill="#ffffff" fill-opacity="1"><g transform="translate(176.460896, 369.699996)"><g><path d="M 12.59375 -15.703125 L 12.59375 -13.09375 L 8.0625 -13.09375 L 8.0625 0 L 4.96875 0 L 4.96875 -13.09375 L 0.4375 -13.09375 L 0.4375 -15.703125 Z M 12.59375 -15.703125 "/></g></g></g><g fill="#ffffff" fill-opacity="1"><g transform="translate(189.478115, 369.699996)"><g><path d="M 1.703125 0 L 1.703125 -16.609375 L 4.6875 -16.609375 L 4.6875 -10.296875 L 4.90625 -10.265625 C 5.300781 -10.835938 5.785156 -11.28125 6.359375 -11.59375 C 6.929688 -11.914062 7.625 -12.078125 8.4375 -12.078125 C 11.050781 -12.078125 12.359375 -10.59375 12.359375 -7.625 L 12.359375 0 L 9.375 0 L 9.375 -7.25 C 9.375 -8.0625 9.210938 -8.648438 8.890625 -9.015625 C 8.566406 -9.378906 8.066406 -9.5625 7.390625 -9.5625 C 6.554688 -9.5625 5.894531 -9.28125 5.40625 -8.71875 C 4.925781 -8.164062 4.6875 -7.304688 4.6875 -6.140625 L 4.6875 0 Z M 1.703125 0 "/></g></g></g><g fill="#ffffff" fill-opacity="1"><g transform="translate(203.354556, 369.699996)"><g><path d="M 11.703125 -5.25 L 4.09375 -5.25 C 4.175781 -4.21875 4.46875 -3.46875 4.96875 -3 C 5.46875 -2.53125 6.15625 -2.296875 7.03125 -2.296875 C 7.707031 -2.296875 8.253906 -2.421875 8.671875 -2.671875 C 9.097656 -2.929688 9.441406 -3.316406 9.703125 -3.828125 L 9.921875 -3.828125 L 11.90625 -2.5625 C 11.519531 -1.738281 10.9375 -1.066406 10.15625 -0.546875 C 9.375 -0.0351562 8.332031 0.21875 7.03125 0.21875 C 5.800781 0.21875 4.738281 -0.0078125 3.84375 -0.46875 C 2.957031 -0.9375 2.269531 -1.628906 1.78125 -2.546875 C 1.300781 -3.472656 1.0625 -4.597656 1.0625 -5.921875 C 1.0625 -7.265625 1.316406 -8.394531 1.828125 -9.3125 C 2.335938 -10.238281 3.023438 -10.929688 3.890625 -11.390625 C 4.753906 -11.847656 5.726562 -12.078125 6.8125 -12.078125 C 8.488281 -12.078125 9.769531 -11.628906 10.65625 -10.734375 C 11.550781 -9.847656 12 -8.546875 12 -6.828125 C 12 -6.203125 11.976562 -5.71875 11.9375 -5.375 Z M 9.15625 -7.171875 C 9.125 -8.078125 8.910156 -8.734375 8.515625 -9.140625 C 8.128906 -9.554688 7.5625 -9.765625 6.8125 -9.765625 C 5.3125 -9.765625 4.425781 -8.898438 4.15625 -7.171875 Z M 9.15625 -7.171875 "/></g></g></g><g fill="#ffffff" fill-opacity="1"><g transform="translate(216.232157, 369.699996)"><g><path d="M 1.703125 0 L 1.703125 -11.84375 L 4.59375 -11.84375 L 4.59375 -10.09375 L 4.828125 -10.046875 C 5.109375 -10.703125 5.484375 -11.179688 5.953125 -11.484375 C 6.421875 -11.796875 6.988281 -11.953125 7.65625 -11.953125 C 8.320312 -11.953125 8.832031 -11.835938 9.1875 -11.609375 L 8.6875 -9.046875 L 8.453125 -9 C 8.265625 -9.082031 8.078125 -9.140625 7.890625 -9.171875 C 7.710938 -9.210938 7.492188 -9.234375 7.234375 -9.234375 C 6.410156 -9.234375 5.78125 -8.941406 5.34375 -8.359375 C 4.90625 -7.773438 4.6875 -6.835938 4.6875 -5.546875 L 4.6875 0 Z M 1.703125 0 "/></g></g></g><g fill="#ffffff" fill-opacity="1"><g transform="translate(225.522504, 369.699996)"><g><path d="M 4.625 0.21875 C 3.863281 0.21875 3.203125 0.0820312 2.640625 -0.1875 C 2.085938 -0.46875 1.660156 -0.878906 1.359375 -1.421875 C 1.054688 -1.960938 0.90625 -2.613281 0.90625 -3.375 C 0.90625 -4.070312 1.054688 -4.660156 1.359375 -5.140625 C 1.660156 -5.617188 2.125 -6.007812 2.75 -6.3125 C 3.382812 -6.613281 4.207031 -6.847656 5.21875 -7.015625 C 5.925781 -7.128906 6.460938 -7.253906 6.828125 -7.390625 C 7.203125 -7.523438 7.453125 -7.675781 7.578125 -7.84375 C 7.710938 -8.019531 7.78125 -8.242188 7.78125 -8.515625 C 7.78125 -8.890625 7.644531 -9.175781 7.375 -9.375 C 7.113281 -9.570312 6.675781 -9.671875 6.0625 -9.671875 C 5.40625 -9.671875 4.773438 -9.523438 4.171875 -9.234375 C 3.578125 -8.941406 3.0625 -8.554688 2.625 -8.078125 L 2.421875 -8.078125 L 1.171875 -9.953125 C 1.773438 -10.617188 2.507812 -11.140625 3.375 -11.515625 C 4.238281 -11.890625 5.179688 -12.078125 6.203125 -12.078125 C 7.773438 -12.078125 8.910156 -11.742188 9.609375 -11.078125 C 10.316406 -10.410156 10.671875 -9.460938 10.671875 -8.234375 L 10.671875 -3.09375 C 10.671875 -2.5625 10.898438 -2.296875 11.359375 -2.296875 C 11.546875 -2.296875 11.722656 -2.328125 11.890625 -2.390625 L 12.046875 -2.359375 L 12.25 -0.28125 C 12.09375 -0.175781 11.863281 -0.0859375 11.5625 -0.015625 C 11.269531 0.0546875 10.953125 0.09375 10.609375 0.09375 C 9.898438 0.09375 9.34375 -0.0390625 8.9375 -0.3125 C 8.539062 -0.59375 8.257812 -1.019531 8.09375 -1.59375 L 7.859375 -1.625 C 7.285156 -0.394531 6.207031 0.21875 4.625 0.21875 Z M 5.5625 -2 C 6.25 -2 6.796875 -2.226562 7.203125 -2.6875 C 7.617188 -3.15625 7.828125 -3.800781 7.828125 -4.625 L 7.828125 -5.828125 L 7.625 -5.859375 C 7.445312 -5.722656 7.210938 -5.601562 6.921875 -5.5 C 6.628906 -5.40625 6.210938 -5.3125 5.671875 -5.21875 C 5.023438 -5.113281 4.5625 -4.929688 4.28125 -4.671875 C 4 -4.410156 3.859375 -4.039062 3.859375 -3.5625 C 3.859375 -3.050781 4.007812 -2.660156 4.3125 -2.390625 C 4.613281 -2.128906 5.03125 -2 5.5625 -2 Z M 5.5625 -2 "/></g></g></g><g fill="#ffffff" fill-opacity="1"><g transform="translate(238.013455, 369.699996)"><g><path d="M 1.703125 4.796875 L 1.703125 -11.84375 L 4.6875 -11.84375 L 4.6875 -10.296875 L 4.90625 -10.265625 C 5.257812 -10.859375 5.726562 -11.304688 6.3125 -11.609375 C 6.90625 -11.921875 7.59375 -12.078125 8.375 -12.078125 C 9.332031 -12.078125 10.164062 -11.847656 10.875 -11.390625 C 11.59375 -10.941406 12.148438 -10.253906 12.546875 -9.328125 C 12.941406 -8.410156 13.140625 -7.273438 13.140625 -5.921875 C 13.140625 -4.566406 12.925781 -3.429688 12.5 -2.515625 C 12.082031 -1.597656 11.5 -0.910156 10.75 -0.453125 C 10.007812 -0.00390625 9.15625 0.21875 8.1875 0.21875 C 7.445312 0.21875 6.804688 0.0976562 6.265625 -0.140625 C 5.734375 -0.390625 5.28125 -0.773438 4.90625 -1.296875 L 4.6875 -1.25 L 4.6875 4.796875 Z M 7.359375 -2.296875 C 8.242188 -2.296875 8.914062 -2.585938 9.375 -3.171875 C 9.832031 -3.753906 10.0625 -4.671875 10.0625 -5.921875 C 10.0625 -7.171875 9.832031 -8.085938 9.375 -8.671875 C 8.914062 -9.253906 8.242188 -9.546875 7.359375 -9.546875 C 6.523438 -9.546875 5.863281 -9.242188 5.375 -8.640625 C 4.894531 -8.046875 4.65625 -7.140625 4.65625 -5.921875 C 4.65625 -4.710938 4.894531 -3.804688 5.375 -3.203125 C 5.863281 -2.597656 6.523438 -2.296875 7.359375 -2.296875 Z M 7.359375 -2.296875 "/></g></g></g><g fill="#ffffff" fill-opacity="1"><g transform="translate(252.20137, 369.699996)"><g><path d="M 2.625 5.03125 C 2.113281 5.03125 1.648438 4.988281 1.234375 4.90625 C 0.828125 4.832031 0.492188 4.726562 0.234375 4.59375 L 0.703125 2.1875 L 0.90625 2.125 C 1.082031 2.21875 1.300781 2.289062 1.5625 2.34375 C 1.832031 2.40625 2.109375 2.4375 2.390625 2.4375 C 2.867188 2.4375 3.265625 2.375 3.578125 2.25 C 3.898438 2.125 4.171875 1.914062 4.390625 1.625 C 4.617188 1.332031 4.816406 0.929688 4.984375 0.421875 L 0.265625 -11.84375 L 3.375 -11.84375 L 6.3125 -3.609375 L 6.578125 -3.609375 L 9.4375 -11.84375 L 12.46875 -11.84375 L 7.71875 0.734375 C 7.332031 1.753906 6.910156 2.570312 6.453125 3.1875 C 6.003906 3.8125 5.46875 4.273438 4.84375 4.578125 C 4.226562 4.878906 3.488281 5.03125 2.625 5.03125 Z M 2.625 5.03125 "/></g></g></g></svg>