<svg xmlns="http://www.w3.org/2000/svg" xmlns:xlink="http://www.w3.org/1999/xlink" width="500" zoomAndPan="magnify" viewBox="0 0 375 374.999991" height="500" preserveAspectRatio="xMidYMid meet" version="1.0"><defs><clipPath id="4870453cbe"><path d="M 6 5.394531 L 369.894531 5.394531 L 369.894531 209 L 6 209 Z M 6 5.394531 " clip-rule="nonzero"/></clipPath><clipPath id="550e06c9a0"><path d="M 8 190 L 369 190 L 369 369.894531 L 8 369.894531 Z M 8 190 " clip-rule="nonzero"/></clipPath></defs><g clip-path="url(#4870453cbe)"><path fill="#005073" d="M 183.335938 119.429688 C 171.277344 109.78125 164.386719 95.3125 164.386719 79.464844 C 164.386719 61.894531 173.347656 45.703125 187.816406 36.398438 C 202.285156 45.703125 211.242188 62.238281 211.242188 79.464844 C 211.242188 94.96875 204.351562 109.78125 192.292969 119.429688 L 187.816406 64.652344 Z M 125.800781 120.808594 C 149.917969 123.5625 168.867188 142.855469 171.277344 166.972656 C 160.253906 150.433594 138.894531 166.628906 115.121094 147.679688 C 104.441406 139.066406 97.550781 126.320312 96.175781 112.539062 C 114.433594 99.101562 138.894531 98.757812 157.5 111.160156 L 158.1875 111.503906 C 175.070312 122.875 185.75 142.167969 186.09375 162.839844 C 186.4375 142.167969 197.117188 122.875 214 111.503906 L 214.6875 111.160156 C 233.292969 98.757812 258.097656 99.445312 276.011719 112.539062 C 274.632812 126.320312 267.742188 139.066406 257.0625 147.679688 C 233.292969 166.628906 211.933594 150.78125 201.25 166.972656 C 203.664062 142.855469 222.613281 123.5625 246.726562 120.808594 C 207.796875 124.597656 189.195312 153.878906 190.917969 208.316406 C 187.816406 208.316406 184.371094 207.96875 180.925781 207.28125 C 182.304688 153.535156 163.699219 124.941406 125.113281 120.808594 Z M 187.816406 5.050781 C 238.117188 5.050781 283.589844 25.375 316.664062 58.449219 C 349.738281 91.523438 370.066406 137 370.066406 187.300781 C 370.066406 193.5 369.722656 199.355469 369.375 205.214844 C 363.863281 205.558594 359.386719 205.558594 355.597656 205.558594 C 356.285156 199.703125 356.628906 193.5 356.628906 187.300781 C 356.628906 140.789062 337.679688 98.757812 307.363281 68.097656 C 277.046875 37.777344 234.671875 18.828125 188.160156 18.828125 C 141.648438 18.828125 99.273438 37.777344 68.957031 68.097656 C 38.640625 98.757812 19.691406 140.789062 19.691406 187.300781 C 19.691406 193.5 20.035156 199.703125 20.722656 205.558594 C 16.933594 205.558594 12.457031 205.558594 6.945312 205.214844 C 6.253906 199.355469 6.253906 193.15625 6.253906 187.300781 C 6.253906 137 26.582031 91.523438 59.65625 58.449219 C 92.730469 25.71875 138.207031 5.050781 188.503906 5.050781 Z M 187.816406 5.050781 " fill-opacity="1" fill-rule="evenodd"/></g><g clip-path="url(#550e06c9a0)"><path fill="#005073" d="M 61.378906 203.148438 C 75.847656 196.945312 90.316406 190.742188 108.230469 190.742188 C 123.734375 190.742188 138.207031 196.945312 152.675781 203.148438 C 166.109375 209.003906 179.203125 214.515625 191.949219 214.515625 C 204.695312 214.515625 218.132812 208.660156 231.570312 203.148438 C 246.382812 196.945312 260.855469 190.742188 276.355469 190.742188 C 291.171875 190.742188 305.296875 196.945312 319.421875 203.148438 C 342.160156 213.480469 348.015625 215.203125 368.6875 214.515625 C 362.832031 254.136719 344.226562 289.621094 317.355469 316.492188 C 284.28125 349.566406 238.804688 369.894531 188.503906 369.894531 C 138.207031 369.894531 92.730469 349.566406 59.65625 316.492188 C 32.78125 289.621094 14.179688 254.136719 8.320312 214.515625 C 29.335938 215.550781 37.605469 213.828125 62.066406 203.148438 Z M 179.890625 226.917969 C 178.515625 232.429688 175.757812 236.566406 172.3125 239.320312 C 163.011719 248.625 148.886719 251.722656 136.484375 247.246094 C 128.558594 244.488281 121.667969 244.832031 114.777344 247.933594 C 104.097656 252.414062 91.007812 269.292969 79.292969 256.203125 C 78.949219 255.511719 77.914062 255.511719 77.226562 255.859375 C 76.535156 256.203125 76.191406 257.234375 76.535156 257.925781 C 86.183594 267.917969 95.828125 269.292969 105.820312 261.371094 C 114.433594 253.445312 122.011719 251.035156 128.214844 253.445312 C 129.9375 254.136719 133.726562 255.859375 133.726562 258.269531 C 133.726562 258.957031 127.871094 264.816406 126.492188 266.539062 C 120.632812 275.152344 121.667969 282.730469 107.886719 283.765625 C 107.199219 283.765625 106.855469 284.453125 106.855469 285.140625 C 106.855469 285.832031 107.542969 286.175781 108.230469 286.175781 C 131.660156 289.621094 128.214844 262.402344 145.09375 260.335938 C 154.398438 258.957031 157.5 262.058594 168.179688 256.546875 C 177.136719 253.101562 180.582031 253.445312 179.203125 257.925781 C 177.480469 263.78125 174.378906 270.671875 169.902344 278.597656 C 163.699219 290.308594 163.011719 300.644531 167.488281 309.257812 C 174.378906 322.695312 171.96875 333.375 159.910156 340.609375 C 159.222656 341.296875 159.222656 342.332031 159.566406 343.019531 C 160.253906 343.710938 161.289062 344.054688 161.976562 343.710938 C 177.480469 335.785156 182.304688 324.761719 176.101562 310.292969 C 170.246094 297.542969 171.277344 287.898438 179.203125 281.351562 C 182.992188 278.25 185.75 287.898438 187.816406 290.308594 C 194.015625 298.578125 203.664062 300.644531 199.875 315.804688 C 199.53125 316.492188 199.875 317.183594 200.21875 317.527344 C 200.5625 317.871094 201.253906 318.214844 201.941406 318.214844 C 202.628906 318.214844 202.972656 317.527344 203.320312 316.835938 C 206.074219 309.257812 205.730469 302.710938 202.628906 297.890625 C 195.738281 286.175781 182.992188 279.285156 189.539062 263.78125 C 190.917969 261.027344 193.328125 260.335938 196.773438 261.714844 C 206.074219 264.125 213.65625 265.847656 219.855469 266.539062 C 234.324219 267.917969 242.25 258.269531 251.550781 265.503906 C 255.339844 268.605469 258.097656 272.394531 259.820312 277.5625 C 264.644531 291.6875 258.097656 296.855469 277.046875 305.46875 C 277.734375 305.8125 278.769531 305.46875 279.457031 304.433594 C 279.800781 303.746094 279.800781 302.710938 279.113281 302.023438 C 259.476562 292.03125 277.390625 278.941406 262.230469 263.78125 C 261.542969 263.09375 261.542969 261.714844 262.230469 260.679688 C 262.921875 259.648438 264.296875 259.648438 265.332031 260.335938 C 281.871094 270.328125 295.996094 270.328125 308.050781 260.335938 C 309.085938 259.304688 309.085938 257.925781 308.398438 256.890625 C 307.707031 255.859375 306.328125 255.511719 305.296875 255.859375 C 288.414062 265.160156 280.492188 258.269531 266.367188 251.378906 C 258.441406 247.589844 250.171875 247.589844 240.871094 252.066406 C 223.644531 258.613281 209.863281 254.824219 199.183594 239.664062 C 196.773438 236.21875 195.050781 232.085938 193.671875 227.609375 C 188.847656 227.609375 184.027344 226.917969 179.546875 226.230469 Z M 179.890625 226.917969 " fill-opacity="1" fill-rule="evenodd"/></g></svg>