<svg xmlns="http://www.w3.org/2000/svg" xmlns:xlink="http://www.w3.org/1999/xlink" width="500" zoomAndPan="magnify" viewBox="0 0 375 374.999991" height="500" preserveAspectRatio="xMidYMid meet" version="1.0"><defs><clipPath id="f87335d5ed"><path d="M 41.253906 24.566406 L 333.589844 24.566406 L 333.589844 372.847656 L 41.253906 372.847656 Z M 41.253906 24.566406 " clip-rule="nonzero"/></clipPath><clipPath id="42ede3a651"><path d="M 27.34375 146 L 52 146 L 52 158 L 27.34375 158 Z M 27.34375 146 " clip-rule="nonzero"/></clipPath><clipPath id="cf2e31a723"><path d="M 323.414062 146 L 347.539062 146 L 347.539062 158 L 323.414062 158 Z M 323.414062 146 " clip-rule="nonzero"/></clipPath><clipPath id="7f2a619b71"><path d="M 193 2.347656 L 206 2.347656 L 206 27 L 193 27 Z M 193 2.347656 " clip-rule="nonzero"/></clipPath></defs><g clip-path="url(#f87335d5ed)"><path fill="#005073" d="M 48.210938 244.476562 C 46.78125 244.402344 45.683594 243.175781 45.761719 241.742188 C 45.84375 240.3125 47.066406 239.210938 48.496094 239.289062 C 62.414062 240.066406 73.261719 237.75 83.683594 235.527344 C 88.980469 234.394531 94.171875 233.285156 99.628906 232.597656 C 99.855469 232.566406 100.089844 232.539062 100.324219 232.515625 L 100.335938 232.511719 C 104.152344 232.058594 108.109375 231.8125 112.328125 231.921875 C 118.65625 232.074219 125.320312 232.675781 131.976562 233.328125 L 132.003906 233.328125 L 134.375 233.5625 L 134.445312 233.570312 C 151.207031 235.214844 167.667969 236.820312 176.6875 231.773438 C 179.511719 230.195312 181.320312 227.757812 182.464844 224.917969 C 183.6875 221.878906 184.179688 218.347656 184.308594 214.84375 L 184.308594 214.839844 C 184.378906 207.011719 184.605469 198.640625 184.863281 189.851562 C 182.890625 173.648438 161.320312 168.230469 138.972656 165.484375 C 128.671875 164.894531 116.179688 165.21875 102.167969 169.007812 C 88.074219 172.820312 72.410156 180.152344 55.847656 193.628906 C 54.738281 194.53125 53.101562 194.363281 52.203125 193.25 C 51.300781 192.136719 51.46875 190.503906 52.578125 189.597656 C 69.785156 175.597656 86.109375 167.960938 100.828125 163.980469 C 103.230469 163.332031 105.582031 162.785156 107.890625 162.316406 C 96.234375 160.765625 82.640625 157.910156 70.425781 153.300781 C 58.914062 148.953125 48.566406 143.023438 42.050781 135.109375 C 41.144531 134.007812 41.304688 132.371094 42.410156 131.460938 C 43.515625 130.554688 45.148438 130.710938 46.058594 131.816406 C 51.921875 138.941406 61.5 144.378906 72.257812 148.441406 C 86.867188 153.957031 103.550781 156.882812 116.21875 158.035156 C 118.675781 158.257812 117.382812 158.132812 120.867188 158.441406 C 144.675781 160.546875 173.734375 163.121094 185.214844 177.597656 C 185.582031 164.003906 185.871094 149.613281 185.640625 134.863281 C 176.214844 111.601562 158.382812 104.316406 139.632812 100.300781 C 131.074219 99.382812 122.777344 102.441406 114.289062 105.574219 C 103.34375 109.605469 92.089844 113.753906 78.761719 110.554688 C 77.371094 110.222656 76.511719 108.828125 76.839844 107.429688 C 77.175781 106.042969 78.570312 105.179688 79.964844 105.511719 C 91.746094 108.34375 102.265625 104.460938 112.5 100.691406 C 115.882812 99.441406 119.234375 98.207031 122.613281 97.203125 C 105.773438 94.308594 89.9375 90.96875 79.710938 78.308594 C 78.8125 77.195312 78.992188 75.558594 80.109375 74.660156 C 81.222656 73.761719 82.859375 73.941406 83.757812 75.058594 C 93.382812 86.976562 109.648438 89.738281 126.675781 92.625 C 148.449219 96.316406 171.40625 100.214844 185.320312 122.726562 C 185.230469 120.339844 185.125 117.953125 185.003906 115.5625 L 184.777344 111.082031 C 184.082031 97.710938 183.347656 83.632812 183.285156 70.761719 C 182.480469 53.886719 175.667969 46.921875 169.199219 40.3125 C 165.777344 36.820312 162.445312 33.414062 159.90625 28.746094 C 159.222656 27.488281 159.6875 25.910156 160.945312 25.226562 C 162.203125 24.542969 163.773438 25.007812 164.460938 26.265625 C 166.644531 30.289062 169.734375 33.4375 172.902344 36.671875 C 177.820312 41.699219 182.917969 46.914062 185.90625 55.824219 C 188.890625 46.910156 193.976562 41.699219 198.882812 36.671875 C 202.042969 33.4375 205.121094 30.28125 207.308594 26.265625 C 207.992188 25.007812 209.566406 24.542969 210.824219 25.226562 C 212.082031 25.910156 212.542969 27.488281 211.859375 28.746094 C 209.324219 33.40625 206.007812 36.808594 202.597656 40.292969 C 196.027344 47.027344 189.101562 54.125 188.503906 71.679688 L 188.503906 71.757812 L 188.5 71.757812 L 188.5 71.8125 L 188.496094 71.820312 L 188.496094 71.847656 L 188.492188 71.851562 L 188.492188 71.882812 L 188.488281 71.890625 L 188.488281 71.90625 L 188.484375 71.90625 L 188.484375 71.941406 L 188.480469 71.945312 L 188.480469 71.976562 L 188.476562 71.976562 L 188.476562 71.988281 L 188.472656 71.996094 L 188.472656 72 C 188.578125 84.292969 189.28125 97.882812 189.953125 110.816406 L 190.191406 115.296875 C 190.335938 118.105469 190.453125 120.910156 190.550781 123.703125 C 204.402344 100.324219 227.699219 96.371094 249.796875 92.625 C 266.820312 89.738281 283.085938 86.976562 292.707031 75.058594 C 293.609375 73.941406 295.242188 73.761719 296.359375 74.660156 C 297.476562 75.558594 297.652344 77.195312 296.753906 78.308594 C 286.527344 90.96875 270.691406 94.308594 253.851562 97.203125 C 257.230469 98.207031 260.585938 99.441406 263.964844 100.691406 C 274.199219 104.460938 284.71875 108.34375 296.503906 105.511719 C 297.894531 105.179688 299.292969 106.042969 299.621094 107.429688 C 299.953125 108.828125 299.09375 110.222656 297.703125 110.554688 C 284.375 113.753906 273.121094 109.605469 262.179688 105.574219 C 253.691406 102.441406 245.394531 99.386719 236.839844 100.296875 C 218.089844 104.3125 200.253906 111.601562 190.828125 134.863281 C 191.054688 149.296875 190.777344 163.394531 190.421875 176.738281 C 202.355469 163.019531 230.726562 160.503906 254.050781 158.441406 C 257.535156 158.132812 256.246094 158.257812 258.703125 158.035156 C 271.367188 156.882812 288.050781 153.957031 302.664062 148.441406 C 313.414062 144.378906 323 138.941406 328.859375 131.816406 C 329.769531 130.710938 331.402344 130.554688 332.511719 131.460938 C 333.617188 132.371094 333.769531 134.007812 332.863281 135.109375 C 326.351562 143.023438 316.007812 148.953125 304.492188 153.300781 C 292.277344 157.910156 278.6875 160.765625 267.027344 162.316406 C 269.339844 162.785156 271.691406 163.332031 274.089844 163.980469 C 288.808594 167.960938 305.132812 175.597656 322.339844 189.597656 C 323.453125 190.503906 323.621094 192.136719 322.71875 193.25 C 321.8125 194.363281 320.179688 194.53125 319.070312 193.628906 C 302.507812 180.152344 286.847656 172.820312 272.75 169.007812 C 258.734375 165.21875 246.238281 164.894531 235.941406 165.484375 C 213.554688 168.234375 191.953125 173.664062 190.046875 189.929688 C 189.878906 195.699219 189.722656 201.285156 189.613281 206.648438 C 189.496094 212.707031 189.035156 219.191406 191.339844 224.917969 C 192.484375 227.757812 194.296875 230.195312 197.117188 231.773438 C 197.929688 232.226562 198.804688 232.628906 199.734375 232.984375 L 199.796875 233.003906 L 199.808594 233.007812 L 199.816406 233.011719 C 201.128906 233.5 202.546875 233.894531 204.058594 234.207031 L 204.105469 234.210938 C 206.085938 234.453125 208.011719 234.707031 209.882812 234.984375 C 218.410156 235.625 228.824219 234.601562 239.359375 233.570312 L 239.429688 233.5625 L 241.796875 233.328125 L 241.832031 233.328125 C 248.488281 232.675781 255.148438 232.074219 261.480469 231.921875 C 265.695312 231.8125 269.648438 232.058594 273.46875 232.511719 L 273.480469 232.515625 C 273.71875 232.539062 273.949219 232.566406 274.175781 232.597656 C 279.632812 233.285156 284.824219 234.394531 290.125 235.527344 C 300.539062 237.75 311.390625 240.066406 325.3125 239.289062 C 326.738281 239.210938 327.964844 240.3125 328.042969 241.742188 C 328.121094 243.175781 327.023438 244.402344 325.59375 244.476562 C 310.976562 245.292969 299.789062 242.902344 289.046875 240.609375 L 287.199219 240.214844 C 287.96875 241.34375 288.628906 242.535156 289.277344 243.757812 C 295.636719 255.761719 302.703125 255.15625 311.371094 254.410156 C 315.285156 254.074219 319.492188 253.714844 324.191406 254.25 C 325.617188 254.402344 326.644531 255.6875 326.488281 257.117188 C 326.332031 258.539062 325.046875 259.566406 323.625 259.414062 C 319.457031 258.941406 315.488281 259.28125 311.796875 259.597656 C 301.257812 260.5 292.664062 261.238281 284.6875 246.179688 C 283.546875 244.027344 282.375 242.035156 280.652344 240.570312 C 279.0625 239.226562 276.878906 238.21875 273.585938 237.761719 L 273.554688 237.757812 C 269.714844 237.269531 265.769531 237 261.601562 237.101562 C 260.875 237.121094 260.140625 237.144531 259.402344 237.175781 C 264.214844 240.152344 267.582031 244.515625 271.175781 249.171875 C 272.253906 250.574219 273.355469 252.007812 274.535156 253.421875 L 274.535156 253.425781 L 274.582031 253.480469 L 274.589844 253.492188 C 276.171875 255.398438 277.886719 257.289062 279.855469 259.054688 C 288.140625 266.5 296.257812 266.597656 303.558594 266.683594 C 310.035156 266.761719 315.953125 266.832031 321.402344 271.140625 C 322.523438 272.027344 322.714844 273.660156 321.832031 274.78125 C 320.941406 275.902344 319.3125 276.09375 318.191406 275.207031 C 314.128906 271.996094 309.054688 271.9375 303.5 271.871094 C 296.027344 271.78125 287.800781 271.683594 279.070312 265.136719 C 279.140625 265.703125 279.203125 266.261719 279.265625 266.8125 C 279.585938 269.695312 279.878906 272.316406 281.867188 274.570312 C 284.539062 277.597656 288.441406 278.820312 292.410156 280.058594 C 298.296875 281.898438 304.308594 283.777344 308.398438 290.859375 C 309.117188 292.101562 308.695312 293.691406 307.457031 294.410156 C 306.210938 295.128906 304.625 294.703125 303.90625 293.464844 C 300.832031 288.132812 295.796875 286.5625 290.867188 285.023438 C 286.191406 283.5625 281.589844 282.125 277.964844 278.011719 C 274.898438 274.527344 274.519531 271.121094 274.105469 267.382812 C 273.742188 264.144531 273.347656 260.597656 270.507812 256.703125 C 269.300781 255.246094 268.175781 253.78125 267.066406 252.347656 C 261.160156 244.6875 255.9375 237.921875 242.230469 238.503906 L 239.9375 238.726562 L 239.871094 238.734375 C 236.324219 239.082031 232.785156 239.429688 229.316406 239.710938 C 236.078125 242.355469 241.9375 246.15625 247.191406 251.9375 C 250.8125 255.933594 253.757812 260.894531 256.792969 266.007812 C 259.160156 269.996094 261.582031 274.082031 264.316406 277.679688 C 270.554688 285.898438 278.402344 288.664062 285.835938 291.28125 C 285.878906 291.296875 285.917969 291.3125 285.960938 291.328125 C 293.820312 294.097656 301.257812 296.753906 306.703125 304.949219 C 307.496094 306.144531 307.171875 307.753906 305.972656 308.546875 C 304.777344 309.339844 303.167969 309.011719 302.378906 307.816406 C 297.886719 301.0625 291.25 298.691406 284.234375 296.222656 C 284.195312 296.210938 284.152344 296.199219 284.109375 296.183594 C 283.066406 295.816406 282.023438 295.445312 280.972656 295.0625 C 281.683594 297.28125 282.035156 299.691406 282.417969 302.335938 C 282.605469 303.617188 282.804688 304.964844 283.003906 306.105469 C 283.429688 308.457031 283.941406 310.425781 284.746094 311.984375 C 285.453125 313.355469 286.425781 314.429688 287.84375 315.21875 C 289.09375 315.914062 289.546875 317.5 288.847656 318.746094 C 288.15625 320 286.574219 320.449219 285.324219 319.753906 C 282.929688 318.421875 281.304688 316.628906 280.136719 314.363281 C 279.0625 312.289062 278.414062 309.855469 277.90625 307.023438 C 277.628906 305.46875 277.449219 304.246094 277.277344 303.066406 C 276.523438 297.859375 275.925781 293.773438 271.261719 290.667969 C 267.386719 288.398438 263.632812 285.339844 260.1875 280.808594 C 257.207031 276.882812 254.734375 272.71875 252.320312 268.652344 C 249.425781 263.769531 246.617188 259.039062 243.347656 255.433594 C 238.449219 250.039062 232.933594 246.578125 226.511719 244.207031 C 222.070312 242.566406 217.171875 241.433594 211.742188 240.535156 C 212.433594 241.058594 213.105469 241.585938 213.761719 242.121094 C 213.855469 242.179688 213.949219 242.25 214.035156 242.320312 C 214.261719 242.503906 214.46875 242.691406 214.667969 242.875 C 217.640625 245.382812 220.261719 248.03125 222.546875 250.824219 C 227.449219 256.804688 230.816406 263.429688 232.882812 270.789062 C 234.773438 275.890625 237.96875 279.734375 241.632812 282.792969 C 245.441406 285.972656 249.820312 288.363281 253.816406 290.457031 C 267.460938 297.578125 270.160156 306.039062 272.828125 314.425781 C 274.75 320.449219 276.660156 326.4375 283.542969 331.539062 C 284.691406 332.394531 284.933594 334.019531 284.082031 335.171875 C 283.230469 336.320312 281.601562 336.5625 280.453125 335.710938 C 272.238281 329.621094 270.070312 322.824219 267.894531 315.988281 C 265.796875 309.421875 263.691406 302.804688 254.929688 297.09375 C 255.476562 299.804688 255.457031 302.671875 255.4375 305.59375 C 255.394531 311.457031 255.347656 317.617188 261.386719 322.277344 C 262.523438 323.15625 262.730469 324.785156 261.855469 325.921875 C 260.984375 327.054688 259.351562 327.265625 258.21875 326.386719 C 250.148438 320.160156 250.199219 312.6875 250.253906 305.574219 C 250.289062 300.46875 250.324219 295.589844 246.410156 292.316406 C 243.671875 290.738281 240.910156 288.941406 238.320312 286.777344 C 237.269531 285.902344 236.25 284.96875 235.28125 283.976562 C 235.46875 285.667969 235.636719 287.363281 235.804688 289.074219 C 236.101562 292.160156 236.410156 295.296875 236.882812 298.546875 L 236.890625 298.582031 C 236.945312 298.914062 236.992188 299.242188 237.039062 299.570312 C 237.535156 302.734375 238.203125 306.011719 239.195312 309.453125 C 240.792969 314.992188 242.984375 318.9375 245.085938 322.738281 C 249.453125 330.609375 253.488281 337.898438 252.324219 356.285156 C 252.234375 357.714844 251.003906 358.804688 249.570312 358.714844 C 248.140625 358.625 247.050781 357.390625 247.140625 355.957031 C 248.214844 339.074219 244.53125 332.429688 240.554688 325.257812 C 238.988281 322.429688 237.378906 319.53125 235.949219 315.957031 C 235.578125 317.535156 235.171875 319.015625 234.785156 320.417969 C 234.214844 322.511719 233.703125 324.386719 233.472656 326.019531 C 232.566406 332.359375 233.566406 335.511719 234.75 339.265625 C 235.65625 342.125 236.65625 345.292969 237.160156 350.234375 C 237.304688 351.660156 236.269531 352.933594 234.84375 353.078125 C 233.417969 353.226562 232.144531 352.191406 231.996094 350.765625 C 231.554688 346.40625 230.625 343.476562 229.789062 340.832031 C 228.414062 336.472656 227.257812 332.808594 228.328125 325.289062 C 228.597656 323.425781 229.160156 321.355469 229.789062 319.058594 C 231.183594 313.949219 232.917969 307.589844 231.886719 300.175781 L 231.78125 299.507812 L 231.769531 299.417969 L 231.75 299.296875 C 231.265625 295.945312 230.953125 292.730469 230.640625 289.5625 C 230.160156 284.617188 229.691406 279.796875 228.554688 274.832031 C 228.367188 274.011719 228.160156 273.195312 227.9375 272.390625 C 227.921875 272.339844 227.90625 272.285156 227.890625 272.230469 C 226.109375 265.855469 223.265625 260.109375 219.179688 254.914062 C 219.222656 256.636719 219.167969 258.441406 219.109375 260.300781 C 218.890625 267.261719 218.636719 275.253906 224.652344 282.535156 C 225.570312 283.636719 225.414062 285.277344 224.308594 286.195312 C 223.203125 287.105469 221.5625 286.949219 220.648438 285.847656 C 213.394531 277.070312 213.679688 268.019531 213.929688 260.140625 C 214.105469 254.472656 214.261719 249.523438 210.992188 246.558594 C 204.585938 241.226562 194.058594 237.472656 189.703125 232.257812 C 189.957031 238.789062 190.460938 244.691406 191.328125 249.847656 C 191.476562 250.519531 191.59375 251.179688 191.683594 251.8125 C 192.113281 254.023438 192.613281 256.082031 193.203125 257.976562 L 193.234375 258.066406 L 193.839844 259.996094 C 194.097656 260.792969 194.347656 261.597656 194.597656 262.394531 C 194.707031 262.574219 194.792969 262.769531 194.855469 262.976562 C 197.769531 272.601562 202.9375 278.175781 207.785156 283.410156 C 216.378906 292.6875 224.070312 300.984375 219.34375 326.09375 C 219.078125 327.503906 217.722656 328.433594 216.3125 328.171875 C 214.902344 327.902344 213.976562 326.550781 214.238281 325.140625 C 218.484375 302.597656 211.636719 295.207031 203.988281 286.949219 C 202.089844 284.902344 200.144531 282.804688 198.289062 280.457031 C 198.375 283.308594 198.15625 286.238281 197.515625 289.269531 C 196.324219 302.164062 199.484375 310.347656 202.453125 318.027344 C 206.40625 328.246094 210.035156 337.640625 204.15625 355.027344 C 203.699219 356.386719 202.222656 357.117188 200.863281 356.652344 C 199.507812 356.191406 198.78125 354.71875 199.238281 353.359375 C 204.519531 337.75 201.210938 329.195312 197.621094 319.898438 C 195.625 314.746094 193.554688 309.378906 192.601562 302.628906 C 191.109375 305.5625 189.449219 308.394531 187.769531 311.269531 C 185.304688 315.484375 182.78125 319.792969 180.71875 324.65625 C 180.390625 325.734375 179.984375 326.75 179.511719 327.703125 C 175.796875 337.90625 174.328125 350.671875 179.210938 369.613281 C 179.566406 371.003906 178.730469 372.414062 177.34375 372.765625 C 175.957031 373.121094 174.546875 372.28125 174.191406 370.894531 C 170.566406 356.832031 170.214844 345.964844 171.671875 336.992188 C 170.871094 337.683594 170.050781 338.363281 169.230469 339.046875 C 163.0625 344.1875 156.796875 349.40625 158.628906 360.683594 C 158.859375 362.097656 157.898438 363.433594 156.484375 363.660156 C 155.070312 363.890625 153.738281 362.933594 153.507812 361.519531 C 151.199219 347.324219 158.617188 341.140625 165.917969 335.0625 C 169.316406 332.230469 172.683594 329.429688 174.636719 325.800781 C 177.003906 319.40625 180.195312 313.957031 183.296875 308.644531 C 187.105469 302.136719 190.785156 295.851562 192.410156 288.308594 C 194.246094 279.78125 192.074219 271.753906 189.558594 263.695312 C 187.207031 268.007812 183.351562 271.695312 179.222656 275.640625 C 171.09375 283.398438 161.757812 292.316406 163.019531 309.964844 C 163.121094 311.398438 162.039062 312.636719 160.609375 312.742188 C 159.179688 312.84375 157.9375 311.761719 157.835938 310.332031 C 156.402344 290.257812 166.691406 280.425781 175.644531 271.875 C 181.972656 265.832031 187.542969 260.511719 186.527344 252.476562 C 186.417969 251.910156 186.316406 251.339844 186.222656 250.761719 L 186.214844 250.742188 L 186.214844 250.738281 L 186.207031 250.679688 C 185.273438 245.109375 184.75 238.761719 184.496094 231.773438 C 181.109375 236.128906 175.402344 238.25 170.691406 241.03125 C 168.140625 242.539062 165.628906 244.214844 162.820312 246.550781 C 159.542969 249.515625 159.699219 254.46875 159.878906 260.140625 C 160.128906 268.019531 160.414062 277.070312 153.15625 285.847656 C 152.242188 286.949219 150.601562 287.105469 149.496094 286.195312 C 148.394531 285.277344 148.238281 283.636719 149.152344 282.535156 C 155.167969 275.253906 154.914062 267.261719 154.699219 260.300781 C 154.636719 258.441406 154.578125 256.636719 154.625 254.914062 C 150.539062 260.109375 147.695312 265.855469 145.914062 272.230469 C 145.898438 272.285156 145.886719 272.339844 145.867188 272.390625 C 145.644531 273.195312 145.441406 274.011719 145.25 274.832031 C 144.113281 279.796875 143.644531 284.617188 143.164062 289.5625 C 142.855469 292.730469 142.542969 295.945312 142.050781 299.296875 L 142.035156 299.417969 L 142.023438 299.507812 L 141.925781 300.175781 C 140.882812 307.589844 142.621094 313.953125 144.015625 319.058594 C 144.644531 321.355469 145.210938 323.425781 145.476562 325.289062 C 146.546875 332.808594 145.390625 336.472656 144.011719 340.832031 C 143.179688 343.476562 142.253906 346.40625 141.804688 350.765625 C 141.660156 352.191406 140.386719 353.226562 138.960938 353.078125 C 137.539062 352.933594 136.496094 351.660156 136.644531 350.234375 C 137.152344 345.292969 138.152344 342.125 139.054688 339.265625 C 140.242188 335.511719 141.238281 332.359375 140.335938 326.019531 C 140.101562 324.386719 139.585938 322.511719 139.015625 320.417969 C 138.632812 319.015625 138.226562 317.535156 137.851562 315.957031 C 136.425781 319.53125 134.816406 322.429688 133.25 325.257812 C 129.273438 332.429688 125.59375 339.074219 126.664062 355.957031 C 126.753906 357.390625 125.667969 358.625 124.234375 358.714844 C 122.804688 358.804688 121.570312 357.714844 121.480469 356.285156 C 120.3125 337.898438 124.355469 330.609375 128.71875 322.738281 C 130.824219 318.9375 133.011719 314.992188 134.609375 309.453125 C 135.601562 306.011719 136.273438 302.734375 136.769531 299.570312 C 136.816406 299.242188 136.863281 298.914062 136.914062 298.582031 L 136.921875 298.546875 C 137.398438 295.296875 137.699219 292.160156 138 289.074219 C 138.167969 287.363281 138.332031 285.667969 138.523438 283.976562 C 137.550781 284.96875 136.53125 285.902344 135.484375 286.777344 C 132.898438 288.941406 130.132812 290.738281 127.398438 292.316406 C 123.484375 295.589844 123.515625 300.46875 123.550781 305.574219 C 123.601562 312.6875 123.65625 320.160156 115.585938 326.386719 C 114.453125 327.265625 112.824219 327.054688 111.949219 325.921875 C 111.074219 324.785156 111.285156 323.15625 112.414062 322.277344 C 118.457031 317.617188 118.414062 311.457031 118.371094 305.59375 C 118.347656 302.671875 118.332031 299.804688 118.878906 297.09375 C 110.117188 302.804688 108.007812 309.421875 105.914062 315.988281 C 103.734375 322.824219 101.570312 329.621094 93.351562 335.710938 C 92.203125 336.5625 90.578125 336.320312 89.722656 335.171875 C 88.871094 334.019531 89.113281 332.394531 90.261719 331.539062 C 97.148438 326.4375 99.054688 320.449219 100.972656 314.425781 C 103.648438 306.039062 106.34375 297.578125 119.992188 290.457031 C 123.988281 288.363281 128.363281 285.972656 132.171875 282.792969 C 135.839844 279.734375 139.035156 275.890625 140.925781 270.789062 C 142.988281 263.429688 146.359375 256.804688 151.257812 250.824219 C 153.546875 248.03125 156.164062 245.382812 159.136719 242.875 C 159.339844 242.691406 159.546875 242.503906 159.765625 242.320312 C 159.855469 242.25 159.949219 242.183594 160.042969 242.121094 C 160.707031 241.582031 161.382812 241.050781 162.074219 240.523438 C 155.582031 241.59375 149.847656 243.007812 144.753906 245.214844 C 139.414062 247.527344 134.710938 250.75 130.457031 255.433594 C 126.285156 260.035156 123.445312 264.980469 120.699219 269.769531 C 116.363281 277.328125 112.242188 284.511719 103.5625 290 C 103.460938 290.085938 103.351562 290.164062 103.230469 290.234375 C 97.933594 293.390625 97.320312 297.613281 96.527344 303.066406 C 96.359375 304.246094 96.179688 305.46875 95.898438 307.023438 C 95.386719 309.855469 94.738281 312.289062 93.671875 314.363281 C 92.503906 316.628906 90.875 318.421875 88.480469 319.753906 C 87.230469 320.449219 85.652344 320 84.953125 318.746094 C 84.261719 317.5 84.707031 315.914062 85.960938 315.21875 C 87.378906 314.429688 88.351562 313.355469 89.054688 311.984375 C 89.863281 310.425781 90.375 308.457031 90.796875 306.105469 C 91.003906 304.964844 91.199219 303.617188 91.386719 302.335938 C 91.769531 299.691406 92.121094 297.277344 92.835938 295.058594 C 91.78125 295.445312 90.734375 295.816406 89.699219 296.179688 L 89.699219 296.183594 C 83.046875 298.527344 76.722656 300.753906 72.273438 306.613281 C 71.414062 307.753906 69.785156 307.976562 68.644531 307.113281 C 67.511719 306.246094 67.285156 304.621094 68.148438 303.480469 C 73.550781 296.359375 80.578125 293.882812 87.96875 291.28125 L 87.972656 291.285156 L 87.980469 291.28125 C 90.558594 290.371094 93.1875 289.445312 95.671875 288.34375 C 106.921875 283.339844 111.414062 275.507812 116.1875 267.1875 C 119.066406 262.160156 122.050781 256.972656 126.617188 251.9375 C 131.382812 246.6875 136.675781 243.066406 142.703125 240.457031 C 143.292969 240.195312 143.894531 239.949219 144.503906 239.710938 C 141.03125 239.429688 137.492188 239.082031 133.933594 238.734375 L 133.867188 238.726562 L 131.574219 238.503906 C 117.863281 237.921875 112.644531 244.6875 106.738281 252.347656 C 105.632812 253.78125 104.5 255.246094 103.296875 256.703125 C 100.457031 260.597656 100.058594 264.144531 99.703125 267.382812 C 99.28125 271.121094 98.90625 274.527344 95.84375 278.011719 C 92.214844 282.125 87.609375 283.5625 82.9375 285.023438 C 78.003906 286.5625 72.972656 288.132812 69.894531 293.464844 C 69.179688 294.703125 67.589844 295.128906 66.351562 294.410156 C 65.105469 293.691406 64.6875 292.101562 65.402344 290.859375 C 69.496094 283.777344 75.503906 281.898438 81.394531 280.058594 C 85.363281 278.820312 89.273438 277.597656 91.9375 274.570312 C 93.925781 272.316406 94.21875 269.695312 94.542969 266.8125 C 94.597656 266.261719 94.664062 265.703125 94.734375 265.136719 C 86.003906 271.683594 77.78125 271.78125 70.308594 271.871094 C 64.753906 271.9375 59.675781 271.996094 55.613281 275.207031 C 54.492188 276.09375 52.863281 275.902344 51.976562 274.78125 C 51.089844 273.660156 51.28125 272.027344 52.40625 271.140625 C 57.855469 266.832031 63.769531 266.761719 70.246094 266.683594 C 77.550781 266.597656 85.660156 266.5 93.953125 259.054688 C 95.917969 257.289062 97.632812 255.398438 99.21875 253.492188 L 99.226562 253.480469 L 99.269531 253.425781 L 99.269531 253.421875 C 100.445312 252.007812 101.550781 250.574219 102.632812 249.171875 C 106.21875 244.515625 109.59375 240.152344 114.402344 237.175781 C 113.664062 237.144531 112.929688 237.121094 112.203125 237.101562 C 108.035156 237 104.089844 237.269531 100.25 237.757812 L 100.21875 237.761719 C 96.925781 238.21875 94.738281 239.226562 93.152344 240.570312 C 91.429688 242.035156 90.257812 244.027344 89.121094 246.179688 C 81.140625 261.238281 72.546875 260.5 62.011719 259.597656 C 58.3125 259.28125 54.347656 258.941406 50.183594 259.414062 C 48.753906 259.566406 47.472656 258.539062 47.316406 257.117188 C 47.15625 255.6875 48.1875 254.402344 49.609375 254.25 C 54.308594 253.714844 58.515625 254.074219 62.4375 254.410156 C 71.101562 255.15625 78.167969 255.761719 84.527344 243.757812 C 85.179688 242.535156 85.84375 241.34375 86.609375 240.214844 L 84.757812 240.609375 C 74.023438 242.902344 62.832031 245.292969 48.210938 244.476562 " fill-opacity="1" fill-rule="nonzero"/></g><path fill="#005073" d="M 127.238281 191.511719 C 125.855469 187.1875 126.363281 182.292969 129.042969 178.199219 C 131.71875 174.101562 135.996094 171.679688 140.507812 171.214844 C 141.886719 175.542969 141.382812 180.429688 138.703125 184.527344 C 136.023438 188.625 131.75 191.046875 127.238281 191.511719 " fill-opacity="1" fill-rule="evenodd"/><path fill="#005073" d="M 100.878906 195.46875 C 99.058594 191.308594 99.050781 186.394531 101.285156 182.039062 C 103.519531 177.6875 107.523438 174.828125 111.964844 173.894531 C 113.789062 178.054688 113.792969 182.96875 111.558594 187.324219 C 109.320312 191.679688 105.324219 194.53125 100.878906 195.46875 " fill-opacity="1" fill-rule="evenodd"/><path fill="#005073" d="M 70.871094 207.136719 C 68.664062 203.171875 68.191406 198.277344 70.011719 193.730469 C 71.832031 189.191406 75.542969 185.972656 79.875 184.621094 C 82.085938 188.589844 82.550781 193.484375 80.738281 198.023438 C 78.917969 202.574219 75.203125 205.792969 70.871094 207.136719 " fill-opacity="1" fill-rule="evenodd"/><path fill="#005073" d="M 68.578125 172.277344 C 64.894531 174.921875 60.085938 175.949219 55.371094 174.667969 C 50.648438 173.378906 47.027344 170.058594 45.195312 165.90625 C 48.878906 163.253906 53.683594 162.230469 58.402344 163.515625 C 63.125 164.800781 66.742188 168.121094 68.578125 172.277344 " fill-opacity="1" fill-rule="evenodd"/><g clip-path="url(#42ede3a651)"><path fill="#005073" d="M 51.441406 150.617188 C 49.023438 154.457031 44.953125 157.214844 40.097656 157.796875 C 35.238281 158.378906 30.636719 156.660156 27.375 153.5 C 29.796875 149.660156 33.867188 146.898438 38.722656 146.320312 C 43.578125 145.738281 48.179688 147.453125 51.441406 150.617188 " fill-opacity="1" fill-rule="evenodd"/></g><path fill="#005073" d="M 170.230469 162.808594 C 165.847656 161.648438 162.003906 158.589844 159.992188 154.121094 C 157.988281 149.660156 158.246094 144.753906 160.289062 140.691406 C 164.671875 141.855469 168.519531 144.914062 170.527344 149.382812 C 172.53125 153.84375 172.273438 158.753906 170.230469 162.808594 " fill-opacity="1" fill-rule="evenodd"/><path fill="#005073" d="M 138.179688 157.152344 C 133.96875 155.46875 130.515625 151.964844 129.0625 147.292969 C 127.605469 142.621094 128.457031 137.78125 130.96875 133.996094 C 135.179688 135.683594 138.632812 139.183594 140.089844 143.855469 C 141.542969 148.527344 140.691406 153.371094 138.179688 157.152344 " fill-opacity="1" fill-rule="evenodd"/><path fill="#005073" d="M 108.847656 153.730469 C 104.464844 152.550781 100.632812 149.476562 98.644531 145 C 96.660156 140.527344 96.941406 135.617188 98.996094 131.570312 C 103.378906 132.757812 107.210938 135.832031 109.199219 140.304688 C 111.1875 144.777344 110.902344 149.683594 108.847656 153.730469 " fill-opacity="1" fill-rule="evenodd"/><path fill="#005073" d="M 79.648438 147.203125 C 75.59375 145.160156 72.464844 141.375 71.421875 136.59375 C 70.371094 131.808594 71.640625 127.0625 74.46875 123.507812 C 78.519531 125.554688 81.65625 129.339844 82.699219 134.121094 C 83.746094 138.90625 82.476562 143.652344 79.648438 147.203125 " fill-opacity="1" fill-rule="evenodd"/><path fill="#005073" d="M 173.988281 125.617188 C 170.871094 128.917969 166.347656 130.835938 161.46875 130.46875 C 156.59375 130.097656 152.40625 127.527344 149.820312 123.796875 C 152.9375 120.492188 157.460938 118.578125 162.339844 118.941406 C 167.21875 119.3125 171.402344 121.886719 173.988281 125.617188 " fill-opacity="1" fill-rule="evenodd"/><path fill="#005073" d="M 136.804688 106.503906 C 137.070312 111.035156 135.371094 115.648438 131.765625 118.953125 C 128.15625 122.257812 123.414062 123.546875 118.925781 122.878906 C 118.65625 118.34375 120.359375 113.734375 123.964844 110.429688 C 127.574219 107.125 132.316406 105.835938 136.804688 106.503906 " fill-opacity="1" fill-rule="evenodd"/><path fill="#005073" d="M 172.171875 96.734375 C 167.640625 96.523438 163.234375 94.34375 160.332031 90.40625 C 157.425781 86.464844 156.652344 81.609375 157.789062 77.214844 C 162.320312 77.425781 166.726562 79.605469 169.628906 83.546875 C 172.53125 87.484375 173.308594 92.339844 172.171875 96.734375 " fill-opacity="1" fill-rule="evenodd"/><path fill="#005073" d="M 138.144531 89.179688 C 133.753906 88.039062 129.894531 85.003906 127.859375 80.550781 C 125.828125 76.09375 126.0625 71.1875 128.078125 67.117188 C 132.472656 68.257812 136.335938 71.292969 138.363281 75.75 C 140.398438 80.199219 140.164062 85.109375 138.144531 89.179688 " fill-opacity="1" fill-rule="evenodd"/><path fill="#005073" d="M 108.785156 82.40625 C 104.433594 81.132812 100.664062 77.980469 98.765625 73.464844 C 96.867188 68.953125 97.25 64.054688 99.390625 60.046875 C 103.746094 61.320312 107.515625 64.476562 109.410156 68.984375 C 111.308594 73.5 110.925781 78.398438 108.785156 82.40625 " fill-opacity="1" fill-rule="evenodd"/><path fill="#005073" d="M 88.488281 91.847656 C 86.207031 95.773438 82.242188 98.675781 77.410156 99.4375 C 72.582031 100.195312 67.917969 98.644531 64.542969 95.605469 C 66.828125 91.679688 70.789062 88.777344 75.621094 88.015625 C 80.453125 87.257812 85.117188 88.808594 88.488281 91.847656 " fill-opacity="1" fill-rule="evenodd"/><path fill="#005073" d="M 151.398438 193.109375 C 151.652344 188.570312 153.871094 184.1875 157.835938 181.320312 C 161.800781 178.453125 166.660156 177.71875 171.039062 178.898438 C 170.785156 183.433594 168.566406 187.820312 164.605469 190.6875 C 160.636719 193.554688 155.78125 194.289062 151.398438 193.109375 " fill-opacity="1" fill-rule="evenodd"/><path fill="#005073" d="M 53.851562 132.335938 C 50.191406 129.648438 47.730469 125.398438 47.488281 120.511719 C 47.246094 115.617188 49.28125 111.144531 52.660156 108.113281 C 56.320312 110.796875 58.785156 115.050781 59.023438 119.945312 C 59.261719 124.828125 57.230469 129.308594 53.851562 132.335938 " fill-opacity="1" fill-rule="evenodd"/><path fill="#005073" d="M 247.679688 191.511719 C 249.066406 187.1875 248.558594 182.292969 245.878906 178.199219 C 243.199219 174.101562 238.925781 171.679688 234.410156 171.214844 C 233.03125 175.542969 233.535156 180.429688 236.214844 184.527344 C 238.890625 188.625 243.167969 191.046875 247.679688 191.511719 " fill-opacity="1" fill-rule="evenodd"/><path fill="#005073" d="M 272.925781 195.46875 C 274.75 191.308594 274.753906 186.394531 272.519531 182.039062 C 270.28125 177.6875 266.285156 174.828125 261.84375 173.894531 C 260.019531 178.054688 260.011719 182.96875 262.246094 187.324219 C 264.484375 191.679688 268.484375 194.53125 272.925781 195.46875 " fill-opacity="1" fill-rule="evenodd"/><path fill="#005073" d="M 302.933594 207.136719 C 305.144531 203.171875 305.613281 198.277344 303.792969 193.730469 C 301.972656 189.191406 298.261719 185.972656 293.929688 184.621094 C 291.722656 188.589844 291.25 193.484375 293.074219 198.023438 C 294.886719 202.574219 298.601562 205.792969 302.933594 207.136719 " fill-opacity="1" fill-rule="evenodd"/><path fill="#005073" d="M 306.335938 172.277344 C 310.023438 174.921875 314.828125 175.949219 319.546875 174.667969 C 324.265625 173.378906 327.890625 170.058594 329.722656 165.90625 C 326.039062 163.253906 321.234375 162.230469 316.515625 163.515625 C 311.792969 164.800781 308.171875 168.121094 306.335938 172.277344 " fill-opacity="1" fill-rule="evenodd"/><g clip-path="url(#cf2e31a723)"><path fill="#005073" d="M 323.480469 150.617188 C 325.902344 154.457031 329.964844 157.214844 334.824219 157.796875 C 339.679688 158.378906 344.285156 156.660156 347.542969 153.5 C 345.121094 149.660156 341.054688 146.898438 336.195312 146.320312 C 331.339844 145.738281 326.738281 147.453125 323.480469 150.617188 " fill-opacity="1" fill-rule="evenodd"/></g><path fill="#005073" d="M 204.683594 162.808594 C 209.070312 161.648438 212.917969 158.589844 214.925781 154.121094 C 216.929688 149.660156 216.671875 144.753906 214.628906 140.691406 C 210.246094 141.855469 206.402344 144.914062 204.390625 149.382812 C 202.386719 153.84375 202.644531 158.753906 204.683594 162.808594 " fill-opacity="1" fill-rule="evenodd"/><path fill="#005073" d="M 236.738281 157.152344 C 240.953125 155.46875 244.398438 151.964844 245.855469 147.292969 C 247.3125 142.621094 246.464844 137.78125 243.953125 133.996094 C 239.738281 135.683594 236.285156 139.183594 234.832031 143.855469 C 233.375 148.527344 234.222656 153.371094 236.738281 157.152344 " fill-opacity="1" fill-rule="evenodd"/><path fill="#005073" d="M 266.070312 153.730469 C 270.453125 152.550781 274.285156 149.476562 276.269531 145 C 278.261719 140.527344 277.976562 135.617188 275.917969 131.570312 C 271.539062 132.757812 267.707031 135.832031 265.71875 140.304688 C 263.730469 144.777344 264.015625 149.683594 266.070312 153.730469 " fill-opacity="1" fill-rule="evenodd"/><path fill="#005073" d="M 295.265625 147.203125 C 299.320312 145.160156 302.453125 141.375 303.503906 136.59375 C 304.546875 131.808594 303.28125 127.0625 300.449219 123.507812 C 296.398438 125.554688 293.261719 129.339844 292.214844 134.121094 C 291.171875 138.90625 292.441406 143.652344 295.265625 147.203125 " fill-opacity="1" fill-rule="evenodd"/><path fill="#005073" d="M 202.449219 125.617188 C 205.566406 128.917969 210.089844 130.835938 214.96875 130.46875 C 219.84375 130.097656 224.027344 127.527344 226.617188 123.796875 C 223.496094 120.492188 218.976562 118.578125 214.097656 118.941406 C 209.21875 119.3125 205.035156 121.886719 202.449219 125.617188 " fill-opacity="1" fill-rule="evenodd"/><path fill="#005073" d="M 239.664062 106.503906 C 239.394531 111.035156 241.09375 115.648438 244.703125 118.953125 C 248.3125 122.257812 253.050781 123.546875 257.539062 122.878906 C 257.808594 118.34375 256.113281 113.734375 252.5 110.429688 C 248.890625 107.125 244.152344 105.835938 239.664062 106.503906 " fill-opacity="1" fill-rule="evenodd"/><path fill="#005073" d="M 204.292969 96.734375 C 208.828125 96.523438 213.230469 94.34375 216.136719 90.40625 C 219.039062 86.464844 219.816406 81.609375 218.675781 77.214844 C 214.144531 77.425781 209.738281 79.605469 206.839844 83.546875 C 203.9375 87.484375 203.160156 92.339844 204.292969 96.734375 " fill-opacity="1" fill-rule="evenodd"/><path fill="#005073" d="M 238.316406 89.179688 C 242.710938 88.039062 246.574219 85.003906 248.609375 80.550781 C 250.640625 76.09375 250.40625 71.1875 248.390625 67.117188 C 243.996094 68.257812 240.136719 71.292969 238.105469 75.75 C 236.070312 80.199219 236.304688 85.109375 238.316406 89.179688 " fill-opacity="1" fill-rule="evenodd"/><path fill="#005073" d="M 267.679688 82.40625 C 272.039062 81.132812 275.804688 77.980469 277.703125 73.464844 C 279.597656 68.953125 279.214844 64.054688 277.074219 60.046875 C 272.71875 61.320312 268.953125 64.476562 267.058594 68.984375 C 265.15625 73.5 265.542969 78.398438 267.679688 82.40625 " fill-opacity="1" fill-rule="evenodd"/><path fill="#005073" d="M 287.976562 91.847656 C 290.257812 95.773438 294.222656 98.675781 299.058594 99.4375 C 303.890625 100.195312 308.550781 98.644531 311.921875 95.605469 C 309.640625 91.679688 305.679688 88.777344 300.847656 88.015625 C 296.011719 87.257812 291.351562 88.808594 287.976562 91.847656 " fill-opacity="1" fill-rule="evenodd"/><path fill="#005073" d="M 222.40625 193.109375 C 222.148438 188.570312 219.933594 184.1875 215.96875 181.320312 C 212.003906 178.453125 207.144531 177.71875 202.765625 178.898438 C 203.019531 183.433594 205.238281 187.820312 209.203125 190.6875 C 213.167969 193.554688 218.023438 194.289062 222.40625 193.109375 " fill-opacity="1" fill-rule="evenodd"/><path fill="#005073" d="M 321.070312 132.335938 C 324.726562 129.648438 327.191406 125.398438 327.429688 120.511719 C 327.667969 115.617188 325.632812 111.144531 322.253906 108.113281 C 318.597656 110.796875 316.136719 115.050781 315.894531 119.945312 C 315.65625 124.828125 317.691406 129.308594 321.070312 132.335938 " fill-opacity="1" fill-rule="evenodd"/><path fill="#005073" d="M 196.429688 73.570312 C 200.550781 75.476562 205.464844 75.582031 209.859375 73.425781 C 214.25 71.273438 217.179688 67.328125 218.199219 62.902344 C 214.082031 60.996094 209.167969 60.890625 204.777344 63.046875 C 200.378906 65.199219 197.453125 69.144531 196.429688 73.570312 " fill-opacity="1" fill-rule="evenodd"/><path fill="#005073" d="M 203.101562 46.984375 C 206.800781 49.613281 211.613281 50.613281 216.324219 49.304688 C 221.039062 47.996094 224.644531 44.65625 226.453125 40.492188 C 222.757812 37.863281 217.949219 36.859375 213.234375 38.171875 C 208.523438 39.480469 204.917969 42.820312 203.101562 46.984375 " fill-opacity="1" fill-rule="evenodd"/><path fill="#005073" d="M 176.53125 64.988281 C 174.535156 60.910156 170.789062 57.734375 166.019531 56.632812 C 161.253906 55.53125 156.496094 56.746094 152.914062 59.535156 C 154.910156 63.613281 158.65625 66.792969 163.421875 67.894531 C 168.191406 68.996094 172.949219 67.78125 176.53125 64.988281 " fill-opacity="1" fill-rule="evenodd"/><g clip-path="url(#7f2a619b71)"><path fill="#005073" d="M 201.628906 26.246094 C 204.609375 22.828125 206.078125 18.136719 205.246094 13.3125 C 204.40625 8.488281 201.441406 4.570312 197.484375 2.351562 C 194.5 5.777344 193.03125 10.464844 193.863281 15.285156 C 194.703125 20.109375 197.667969 24.03125 201.628906 26.246094 " fill-opacity="1" fill-rule="evenodd"/></g><path fill="#005073" d="M 180.394531 38.789062 C 184.265625 36.425781 187.082031 32.394531 187.734375 27.542969 C 188.386719 22.691406 186.738281 18.058594 183.628906 14.75 C 179.757812 17.121094 176.941406 21.144531 176.289062 26 C 175.632812 30.851562 177.285156 35.480469 180.394531 38.789062 " fill-opacity="1" fill-rule="evenodd"/><path fill="#005073" d="M 159.066406 39.050781 C 157.085938 34.964844 153.355469 31.761719 148.59375 30.640625 C 143.832031 29.515625 139.070312 30.707031 135.472656 33.480469 C 137.449219 37.570312 141.179688 40.765625 145.941406 41.886719 C 150.707031 43.011719 155.472656 41.824219 159.066406 39.050781 " fill-opacity="1" fill-rule="evenodd"/></svg>