<?xml version="1.0" standalone="no"?>
<!DOCTYPE svg PUBLIC "-//W3C//DTD SVG 20010904//EN"
 "http://www.w3.org/TR/2001/REC-SVG-20010904/DTD/svg10.dtd">
<svg version="1.0" xmlns="http://www.w3.org/2000/svg"
 width="700.000000pt" height="700.000000pt" viewBox="0 0 700.000000 700.000000"
 preserveAspectRatio="xMidYMid meet">
<metadata>
Created by potrace 1.14, written by Peter Selinger 2001-2017
</metadata>
<g transform="translate(0.000000,700.000000) scale(0.100000,-0.100000)"
fill="#000000" stroke="none">
<path d="M3240 6897 c-3 -3 -38 -7 -79 -11 -65 -5 -126 -14 -226 -31 -383 -67
-783 -213 -1110 -405 -49 -29 -99 -58 -110 -64 -44 -25 -185 -123 -265 -184
-303 -233 -573 -524 -783 -843 -275 -421 -463 -933 -522 -1424 -4 -27 -8 -61
-10 -75 -22 -137 -22 -667 -1 -688 3 -2 61 -6 130 -7 122 -3 124 -2 121 19
-14 79 -21 441 -11 536 2 19 7 69 11 110 14 136 14 134 41 275 167 859 688
1614 1428 2072 110 68 307 171 396 208 36 14 79 32 95 40 146 64 482 158 651
181 27 3 56 8 65 9 29 6 112 15 204 24 88 8 480 6 540 -3 17 -3 55 -7 85 -10
215 -23 602 -119 765 -191 17 -7 59 -25 95 -40 572 -238 1086 -677 1425 -1220
235 -375 397 -820 450 -1230 4 -27 9 -61 11 -75 17 -103 23 -400 13 -610 l-4
-95 95 0 c123 0 152 5 157 30 2 11 4 133 5 270 1 217 -3 317 -16 425 -12 99
-22 168 -31 210 -3 14 -8 41 -11 60 -13 80 -68 293 -106 405 -355 1064 -1192
1879 -2260 2199 -65 20 -128 37 -140 40 -13 2 -41 9 -63 14 -22 6 -53 14 -70
17 -52 9 -268 44 -315 51 -52 7 -644 17 -650 11z"/>
<path d="M3453 6284 c-187 -141 -328 -367 -370 -596 -9 -52 -10 -287 -1 -343
31 -182 148 -400 282 -523 52 -48 62 -51 62 -19 1 21 9 127 19 242 2 28 7 86
11 130 8 114 20 256 29 360 2 22 7 83 10 135 7 101 14 129 16 64 1 -21 2 -50
4 -64 8 -80 15 -165 20 -235 4 -44 8 -96 10 -115 2 -19 7 -75 10 -125 4 -49 8
-106 10 -125 2 -19 7 -75 11 -125 4 -49 8 -103 10 -120 1 -16 3 -37 3 -45 1
-19 99 77 157 154 89 118 164 286 180 403 3 27 8 51 11 55 9 15 4 205 -6 273
-34 208 -148 418 -306 563 -35 31 -77 65 -93 75 -30 17 -30 17 -79 -19z"/>
<path d="M2175 5070 c-120 -27 -238 -76 -339 -142 -42 -27 -44 -46 -20 -148
21 -90 39 -140 75 -213 128 -254 368 -446 614 -493 11 -2 31 -6 45 -9 38 -8
113 -14 238 -20 215 -10 287 -32 368 -115 l41 -41 -8 50 c-14 91 -41 175 -86
267 -96 200 -242 346 -453 452 -92 47 -77 47 36 1 399 -164 630 -555 681
-1149 3 -41 7 -144 7 -227 1 -84 3 -153 6 -153 3 -1 23 -4 45 -7 22 -4 62 -7
88 -7 l48 -1 4 200 c2 110 6 209 8 220 3 11 8 49 12 85 12 96 26 177 40 230 1
3 5 19 9 35 4 17 23 77 43 135 125 365 360 589 723 689 41 12 70 17 64 13 -5
-5 -29 -14 -54 -21 -70 -20 -196 -87 -276 -147 -175 -132 -298 -319 -355 -541
-17 -68 -26 -149 -12 -114 10 24 67 70 119 96 62 29 139 42 304 50 252 12 393
51 545 153 129 87 274 256 330 387 10 22 21 47 25 56 13 25 48 160 55 209 8
55 2 61 -105 119 -155 83 -304 120 -480 120 -342 -1 -658 -172 -873 -474 -89
-126 -172 -322 -193 -459 -3 -23 -8 -48 -9 -56 -2 -8 -4 -28 -4 -44 -1 -39 -8
-30 -15 19 -5 35 -16 92 -30 160 -11 50 -57 169 -97 246 -153 300 -432 520
-746 589 -113 25 -307 25 -418 0z"/>
<path d="M1899 3436 c-2 -2 -34 -7 -72 -10 -37 -4 -73 -9 -80 -11 -6 -2 -23
-6 -37 -9 -109 -18 -405 -123 -545 -192 -27 -14 -88 -41 -135 -60 -47 -19 -94
-39 -105 -43 -75 -33 -264 -88 -335 -98 -19 -3 -54 -8 -78 -13 -23 -4 -113 -7
-198 -6 l-155 1 6 -54 c18 -151 100 -453 182 -671 39 -104 174 -385 222 -465
17 -27 38 -63 47 -80 57 -101 255 -370 353 -479 221 -244 416 -413 671 -583
411 -273 889 -458 1364 -528 23 -4 50 -8 61 -10 30 -5 133 -15 200 -20 78 -6
443 -6 520 0 112 9 304 36 424 61 354 72 738 220 1031 397 47 29 93 57 102 62
98 59 334 237 442 335 448 404 775 906 966 1480 23 68 48 151 56 185 8 33 17
67 19 75 7 26 43 213 49 255 l6 40 -127 0 c-269 1 -358 24 -728 185 -115 51
-223 98 -240 105 -16 6 -43 18 -60 25 -114 48 -324 108 -415 119 -73 8 -240 8
-316 -1 -132 -16 -372 -92 -579 -182 -16 -8 -88 -37 -160 -65 -71 -29 -143
-58 -160 -66 -56 -24 -250 -83 -330 -100 -142 -29 -292 -23 -450 20 -130 35
-209 64 -432 159 -328 139 -497 199 -628 222 -22 4 -49 9 -60 11 -28 6 -290
14 -296 9z m1536 -671 c57 -7 116 -12 160 -14 15 -1 26 -18 47 -74 79 -209
276 -393 458 -427 67 -13 182 -13 233 -1 20 5 37 8 37 6 0 -2 37 10 83 27 187
68 227 77 317 73 101 -4 150 -20 323 -108 167 -84 222 -102 322 -101 100 0
125 6 224 49 68 30 83 34 100 23 54 -34 7 -100 -112 -157 -97 -46 -159 -59
-267 -56 -114 4 -196 27 -333 96 -53 27 -103 49 -111 49 -7 0 -18 -11 -24 -25
-10 -21 -6 -31 34 -84 81 -108 92 -151 98 -371 2 -97 6 -122 25 -160 27 -51
76 -100 132 -132 40 -22 49 -44 27 -66 -17 -17 -39 -15 -89 11 -94 47 -161
104 -189 158 -11 20 -28 91 -40 158 -35 207 -92 325 -195 401 -88 66 -138 69
-335 15 -178 -49 -314 -38 -649 51 -126 33 -157 22 -185 -65 -32 -96 -25 -186
22 -276 18 -37 117 -172 148 -202 30 -31 107 -158 119 -196 26 -90 4 -275 -37
-300 -28 -18 -50 9 -43 52 4 20 7 65 8 101 0 97 -25 145 -138 257 -66 65 -107
116 -135 166 -45 83 -74 117 -97 117 -27 0 -110 -97 -132 -153 -16 -41 -19
-72 -17 -147 2 -84 7 -108 45 -205 78 -205 85 -307 28 -424 -45 -95 -252 -264
-300 -245 -30 11 -28 35 5 62 89 76 114 101 143 147 38 59 55 128 49 203 -5
73 -18 118 -63 221 -48 107 -60 163 -56 255 5 123 16 156 141 411 94 194 139
308 132 341 -8 43 -88 33 -243 -31 -92 -38 -127 -44 -287 -49 -203 -6 -253
-38 -385 -248 -118 -188 -193 -242 -340 -242 -46 0 -87 4 -93 10 -12 12 2 34
26 38 10 2 37 7 59 11 94 17 144 61 208 186 53 104 58 111 133 195 32 37 62
72 67 79 12 22 -37 69 -92 89 -127 45 -231 14 -393 -115 -159 -129 -280 -153
-420 -84 -65 32 -158 111 -158 135 0 34 30 31 78 -8 122 -101 213 -88 442 63
206 135 264 158 395 159 50 0 101 -2 115 -6 14 -3 69 -18 123 -33 234 -63 454
-9 631 156 71 66 130 158 140 219 3 14 5 26 5 28 1 2 4 1 9 -1 4 -3 34 -8 67
-12z"/>
</g>
</svg>
